<?xml version="1.0" encoding="UTF-8"?><svg id="_Слой_2" xmlns="http://www.w3.org/2000/svg" width="822.05" height="943.92" xmlns:xlink="http://www.w3.org/1999/xlink" viewBox="0 0 822.05 943.92"><defs><clipPath id="clippath"><rect x="-60.94" y="60.94" width="943.92" height="822.05" transform="translate(882.98 60.94) rotate(90)" style="fill:none; stroke-width:0px;"/></clipPath></defs><g id="_Слой_1-2"><g style="clip-path:url(#clippath);"><polygon points="587.94 728.38 585.98 730.37 650.27 795.5 536.31 910.94 536.31 1031.57 539.08 1031.57 539.08 912.1 654.19 795.5 587.94 728.38" style="fill:#fff; stroke-width:0px;"/><polygon points="508.45 675.93 463.75 721.21 465.71 723.2 508.45 679.9 617.02 789.88 515.38 892.85 515.38 1031.57 518.15 1031.57 518.15 894.01 620.94 789.88 508.45 675.93" style="fill:#fff; stroke-width:0px;"/><polygon points="506.91 707.43 434.75 780.53 476.06 822.38 478.02 820.39 438.67 780.53 506.91 711.4 564.68 769.92 495.67 839.83 495.67 1031.57 498.44 1031.57 498.44 840.99 568.6 769.92 506.91 707.43" style="fill:#fff; stroke-width:0px;"/><polygon points="446.62 809.79 444.66 811.77 470.42 837.87 470.42 1031.57 473.19 1031.57 473.19 836.71 446.62 809.79" style="fill:#fff; stroke-width:0px;"/><polygon points="612.82 648.8 586.23 675.73 695.84 786.77 561.56 922.79 561.56 1031.57 564.33 1031.57 564.33 923.96 699.76 786.77 590.15 675.73 612.82 652.76 682.66 723.51 684.62 721.52 612.82 648.8" style="fill:#fff; stroke-width:0px;"/><rect x="600.97" y="937.1" width="2.77" height="94.47" style="fill:#fff; stroke-width:0px;"/><polygon points="720.89 811.92 625.6 908.45 625.6 1031.57 628.37 1031.57 628.37 909.61 720.89 815.88 739.26 834.48 654.64 920.2 656.6 922.18 743.17 834.48 720.89 811.92" style="fill:#fff; stroke-width:0px;"/><polygon points="727.3 882.77 669.32 941.51 669.32 1031.57 672.09 1031.57 672.09 942.67 729.26 884.76 727.3 882.77" style="fill:#fff; stroke-width:0px;"/><polygon points="732.85 907.1 688.41 952.11 688.41 1031.57 691.18 1031.57 691.18 953.27 734.81 909.08 732.85 907.1" style="fill:#fff; stroke-width:0px;"/><path d="m761.38,894.84c0,8.08-6.49,14.66-14.47,14.66s-14.47-6.58-14.47-14.66,6.49-14.66,14.47-14.66,14.47,6.58,14.47,14.66Zm-2.77,0c0-6.54-5.25-11.85-11.7-11.85s-11.7,5.32-11.7,11.85,5.25,11.85,11.7,11.85,11.7-5.32,11.7-11.85Z" style="fill:#fff; stroke-width:0px;"/><path d="m711.66,736.02c0,8.08-6.49,14.66-14.47,14.66s-14.47-6.58-14.47-14.66,6.49-14.66,14.47-14.66,14.47,6.58,14.47,14.66Zm-2.77,0c0-6.54-5.25-11.85-11.7-11.85s-11.7,5.32-11.7,11.85,5.25,11.85,11.7,11.85,11.7-5.32,11.7-11.85Z" style="fill:#fff; stroke-width:0px;"/><path d="m590.03,715.83c0,8.08-6.49,14.66-14.47,14.66s-14.47-6.58-14.47-14.66,6.49-14.66,14.47-14.66,14.47,6.58,14.47,14.66Zm-2.77,0c0-6.54-5.25-11.85-11.7-11.85s-11.7,5.32-11.7,11.85,5.25,11.85,11.7,11.85,11.7-5.32,11.7-11.85Z" style="fill:#fff; stroke-width:0px;"/><path d="m450.87,810.78c0-2.93-2.34-5.3-5.23-5.3s-5.23,2.37-5.23,5.3,2.34,5.3,5.23,5.3,5.23-2.37,5.23-5.3Z" style="fill:#fff; stroke-width:0px;"/><path d="m607.59,937.1c0-2.93-2.34-5.3-5.23-5.3s-5.23,2.37-5.23,5.3,2.34,5.3,5.23,5.3,5.23-2.37,5.23-5.3Z" style="fill:#fff; stroke-width:0px;"/><path d="m733.52,883.76c0-2.93-2.34-5.3-5.23-5.3s-5.23,2.37-5.23,5.3,2.34,5.3,5.23,5.3,5.23-2.37,5.23-5.3Z" style="fill:#fff; stroke-width:0px;"/><path d="m659.59,920.92c0-2.06-1.65-3.73-3.68-3.73s-3.68,1.67-3.68,3.73,1.65,3.73,3.68,3.73,3.68-1.67,3.68-3.73Z" style="fill:#fff; stroke-width:0px;"/><path d="m468.41,722.2c0-2.06-1.65-3.73-3.68-3.73s-3.68,1.67-3.68,3.73,1.65,3.73,3.68,3.73,3.68-1.67,3.68-3.73Z" style="fill:#fff; stroke-width:0px;"/><ellipse cx="475.49" cy="819.81" rx="3.68" ry="3.73" style="fill:#fff; stroke-width:0px;"/><polygon points="449.67 850.24 463.53 850.24 463.53 1032.54 460.76 1032.54 460.76 853.04 452.44 853.04 452.44 991.37 449.67 991.37 449.67 850.24" style="fill:#fff; stroke-width:0px;"/><polygon points="344.1 565.17 341.33 565.17 341.33 657.28 180.16 657.28 -224 1037.28 -222.04 1039.27 181.31 660.08 344.1 660.08 344.1 565.17" style="fill:#fff; stroke-width:0px;"/><polygon points="324.51 471.14 261.29 471.14 261.29 473.95 321.74 473.95 321.74 629.49 177.99 629.49 -238.8 1022.29 -236.84 1024.27 179.14 632.3 324.51 632.3 324.51 471.14" style="fill:#fff; stroke-width:0px;"/><polygon points="301.43 492.31 199.38 492.31 199.38 551.5 202.15 551.5 202.15 495.12 298.66 495.12 298.66 577.88 201.07 577.88 -252.73 1008.17 -250.78 1010.16 202.21 580.69 301.43 580.69 301.43 492.31" style="fill:#fff; stroke-width:0px;"/><polygon points="187.35 521.5 184.58 521.5 184.58 558.41 -261.44 980.83 -259.48 982.81 187.35 559.58 187.35 521.5" style="fill:#fff; stroke-width:0px;"/><polygon points="417.26 526.72 379.65 526.72 379.65 683.74 189.74 683.74 -206.14 1055.37 -204.18 1057.35 190.89 686.55 382.42 686.55 382.42 529.52 414.48 529.52 414.48 629.57 417.26 629.57 417.26 526.72" style="fill:#fff; stroke-width:0px;"/><polygon points="209.59 724.07 207.63 722.09 -173.49 1078.75 -171.53 1080.73 209.59 724.07" style="fill:#fff; stroke-width:0px;"/><polygon points="379.81 719.47 245.04 719.47 -160.86 1101.24 -158.9 1103.23 246.19 722.28 377.04 722.28 377.04 748.58 257.37 748.58 257.37 751.39 379.81 751.39 379.81 719.47" style="fill:#fff; stroke-width:0px;"/><polygon points="334.88 774.16 252.88 774.16 192.39 835.44 194.35 837.43 254.03 776.97 334.88 776.97 334.88 774.16" style="fill:#fff; stroke-width:0px;"/><polygon points="321.82 795.34 258.98 795.34 211.98 842.94 213.94 844.93 260.13 798.14 321.82 798.14 321.82 795.34" style="fill:#fff; stroke-width:0px;"/><path d="m350.56,807.1c-5.64,5.72-14.82,5.72-20.46,0-5.64-5.72-5.64-15.02,0-20.73,5.64-5.72,14.82-5.72,20.47,0,5.64,5.72,5.64,15.02,0,20.73Zm-1.96-1.98c4.56-4.62,4.56-12.14,0-16.76s-11.98-4.62-16.55,0c-4.56,4.62-4.56,12.14,0,16.76,4.56,4.62,11.98,4.62,16.55,0Z" style="fill:#fff; stroke-width:0px;"/><path d="m426.26,659.18c-5.64,5.72-14.82,5.72-20.47,0-5.64-5.72-5.64-15.02,0-20.73,5.64-5.72,14.82-5.72,20.47,0,5.64,5.72,5.64,15.02,0,20.73Zm-1.96-1.98c4.56-4.62,4.56-12.14,0-16.76s-11.98-4.62-16.55,0-4.56,12.14,0,16.76,11.98,4.62,16.55,0Z" style="fill:#fff; stroke-width:0px;"/><path d="m354.34,557.79c-5.64,5.72-14.82,5.72-20.46,0-5.64-5.72-5.64-15.02,0-20.73,5.64-5.72,14.82-5.72,20.46,0,5.64,5.72,5.64,15.02,0,20.73Zm-1.96-1.98c4.56-4.62,4.56-12.14,0-16.76-4.56-4.62-11.98-4.62-16.55,0-4.56,4.62-4.56,12.14,0,16.76,4.56,4.62,11.98,4.62,16.55,0Z" style="fill:#fff; stroke-width:0px;"/><path d="m189.66,525.25c2.04-2.07,2.04-5.43,0-7.5-2.04-2.07-5.36-2.07-7.4,0-2.04,2.07-2.04,5.43,0,7.5,2.04,2.07,5.36,2.07,7.4,0Z" style="fill:#fff; stroke-width:0px;"/><path d="m212.31,726.83c2.04-2.07,2.04-5.43,0-7.5-2.04-2.07-5.36-2.07-7.4,0-2.04,2.07-2.04,5.43,0,7.5,2.04,2.07,5.36,2.07,7.4,0Z" style="fill:#fff; stroke-width:0px;"/><ellipse cx="334.88" cy="775.57" rx="5.23" ry="5.3" style="fill:#fff; stroke-width:0px;"/><path d="m260.37,752.64c1.44-1.46,1.44-3.82,0-5.27-1.44-1.46-3.77-1.46-5.2,0-1.44,1.46-1.44,3.82,0,5.27,1.44,1.46,3.77,1.46,5.2,0Z" style="fill:#fff; stroke-width:0px;"/><path d="m263.9,475.18c1.44-1.46,1.44-3.82,0-5.27-1.44-1.46-3.77-1.46-5.2,0-1.44,1.46-1.44,3.82,0,5.27,1.44,1.46,3.77,1.46,5.2,0Z" style="fill:#fff; stroke-width:0px;"/><path d="m203.37,551.91c1.44-1.46,1.44-3.82,0-5.27-1.44-1.46-3.77-1.46-5.2,0-1.44,1.46-1.44,3.82,0,5.27s3.77,1.46,5.2,0Z" style="fill:#fff; stroke-width:0px;"/><polygon points="160.63 551.64 150.84 541.72 -295.7 964.65 -293.74 966.63 150.84 545.69 156.71 551.64 2.11 708.26 4.07 710.24 160.63 551.64" style="fill:#fff; stroke-width:0px;"/><path d="m6.12,711.44c1.44-1.46,1.44-3.82,0-5.27-1.44-1.46-3.77-1.46-5.2,0-1.44,1.46-1.44,3.82,0,5.27,1.44,1.46,3.77,1.46,5.2,0Z" style="fill:#fff; stroke-width:0px;"/><polygon points="287.31 907.16 285.35 909.14 349.64 974.27 235.68 1089.71 235.68 1211.31 238.45 1211.31 238.45 1090.88 353.56 974.27 287.31 907.16" style="fill:#fff; stroke-width:0px;"/><polygon points="207.81 854.7 163.11 899.98 165.07 901.97 207.81 858.67 316.39 968.66 214.74 1071.62 214.74 1211.31 217.51 1211.31 217.51 1072.79 320.31 968.66 207.81 854.7" style="fill:#fff; stroke-width:0px;"/><polygon points="206.27 886.2 134.11 959.3 175.43 1001.15 177.39 999.16 138.03 959.3 206.27 890.17 264.05 948.69 195.04 1018.6 195.04 1211.31 197.81 1211.31 197.81 1019.76 267.96 948.69 206.27 886.2" style="fill:#fff; stroke-width:0px;"/><polygon points="312.19 827.57 285.6 854.5 395.21 965.54 260.93 1101.56 260.93 1211.31 263.7 1211.31 263.7 1102.73 399.13 965.54 289.52 854.5 312.19 831.54 382.03 902.28 383.98 900.29 312.19 827.57" style="fill:#fff; stroke-width:0px;"/><path d="m411.02,914.79c0,8.08-6.49,14.66-14.47,14.66s-14.47-6.58-14.47-14.66,6.49-14.66,14.47-14.66,14.47,6.58,14.47,14.66Zm-2.77,0c0-6.54-5.25-11.85-11.7-11.85s-11.7,5.32-11.7,11.85,5.25,11.85,11.7,11.85,11.7-5.32,11.7-11.85Z" style="fill:#fff; stroke-width:0px;"/><path d="m289.39,894.6c0,8.08-6.49,14.66-14.47,14.66s-14.47-6.58-14.47-14.66,6.49-14.66,14.47-14.66,14.47,6.58,14.47,14.66Zm-2.77,0c0-6.54-5.25-11.85-11.7-11.85s-11.7,5.32-11.7,11.85,5.25,11.85,11.7,11.85,11.7-5.32,11.7-11.85Z" style="fill:#fff; stroke-width:0px;"/><path d="m167.77,900.97c0-2.06-1.65-3.73-3.68-3.73s-3.68,1.67-3.68,3.73,1.65,3.73,3.68,3.73,3.68-1.67,3.68-3.73Z" style="fill:#fff; stroke-width:0px;"/><polygon points="815.47 294.91 770.77 249.63 772.73 247.64 815.47 290.94 924.05 180.96 822.4 77.99 822.4 -88.61 825.17 -88.61 825.17 76.83 927.97 180.96 815.47 294.91" style="fill:#fff; stroke-width:0px;"/><polygon points="813.93 263.41 741.78 190.31 783.09 148.46 785.05 150.45 745.69 190.31 813.93 259.44 871.71 200.92 802.7 131.01 802.7 -88.61 805.47 -88.61 805.47 129.85 875.63 200.92 813.93 263.41" style="fill:#fff; stroke-width:0px;"/><polygon points="753.64 161.05 751.68 159.07 777.45 132.97 777.45 -88.61 780.22 -88.61 780.22 134.13 753.64 161.05" style="fill:#fff; stroke-width:0px;"/><path d="m757.9,160.06c0,2.93-2.34,5.3-5.23,5.3s-5.23-2.37-5.23-5.3,2.34-5.3,5.23-5.3,5.23,2.37,5.23,5.3Z" style="fill:#fff; stroke-width:0px;"/><path d="m775.43,248.64c0,2.06-1.65,3.73-3.68,3.73s-3.68-1.67-3.68-3.73,1.65-3.73,3.68-3.73,3.68,1.67,3.68,3.73Z" style="fill:#fff; stroke-width:0px;"/><ellipse cx="782.52" cy="151.03" rx="3.68" ry="3.73" style="fill:#fff; stroke-width:0px;"/><polygon points="755.79 120.6 741.93 120.6 741.93 -88.61 744.71 -88.61 744.71 117.8 753.02 117.8 753.02 -79.33 755.79 -79.33 755.79 120.6" style="fill:#fff; stroke-width:0px;"/><polygon points="630.72 118.92 627.94 118.92 627.94 26.81 466.78 26.81 381.9 -59.17 381.93 -111.74 383.86 -111.74 383.86 -61.15 467.92 24.01 630.72 24.01 630.72 118.92" style="fill:#fff; stroke-width:0px;"/><polygon points="611.12 212.95 547.9 212.95 547.9 210.14 608.35 210.14 608.35 54.6 464.6 54.6 367.09 -44.17 367.09 -111.74 369.05 -111.74 369.05 -46.16 465.75 51.79 611.12 51.79 611.12 212.95" style="fill:#fff; stroke-width:0px;"/><polygon points="588.04 191.78 485.99 191.78 485.99 132.59 488.77 132.59 488.77 188.97 585.27 188.97 585.27 106.21 487.68 106.21 353.16 -30.06 353.16 -111.74 355.12 -111.74 355.12 -32.04 488.83 103.4 588.04 103.4 588.04 191.78" style="fill:#fff; stroke-width:0px;"/><polygon points="473.96 162.59 471.19 162.59 471.19 125.68 344.45 -2.71 344.45 -111.74 346.41 -111.74 346.41 -4.69 473.96 124.51 473.96 162.59" style="fill:#fff; stroke-width:0px;"/><polygon points="703.87 157.37 666.26 157.37 666.26 .35 476.36 .35 371.38 -105.99 373.34 -107.98 477.5 -2.46 669.03 -2.46 669.03 154.57 701.1 154.57 701.1 54.52 703.87 54.52 703.87 157.37" style="fill:#fff; stroke-width:0px;"/><path d="m712.87,45.64c-5.64,5.72-14.82,5.72-20.47,0-5.64-5.72-5.64-15.02,0-20.73,5.64-5.72,14.82-5.72,20.47,0,5.64,5.72,5.64,15.02,0,20.73Zm-18.51-18.75c-4.56,4.62-4.56,12.14,0,16.76s11.98,4.62,16.55,0c4.56-4.62,4.56-12.14,0-16.76-4.56-4.62-11.98-4.62-16.55,0Z" style="fill:#fff; stroke-width:0px;"/><path d="m640.95,147.03c-5.64,5.72-14.82,5.72-20.46,0-5.64-5.72-5.64-15.02,0-20.73,5.64-5.72,14.82-5.72,20.46,0,5.64,5.72,5.64,15.02,0,20.73Zm-18.51-18.75c-4.56,4.62-4.56,12.14,0,16.76,4.56,4.62,11.98,4.62,16.55,0,4.56-4.62,4.56-12.14,0-16.76-4.56-4.62-11.98-4.62-16.55,0Z" style="fill:#fff; stroke-width:0px;"/><ellipse cx="472.58" cy="162.59" rx="5.23" ry="5.3" style="fill:#fff; stroke-width:0px;"/><path d="m550.51,208.91c1.44,1.46,1.44,3.82,0,5.27-1.44,1.46-3.77,1.46-5.2,0-1.44-1.46-1.44-3.82,0-5.27,1.44-1.46,3.77-1.46,5.2,0Z" style="fill:#fff; stroke-width:0px;"/><ellipse cx="487.38" cy="134.82" rx="3.68" ry="3.73" style="fill:#fff; stroke-width:0px;"/><polygon points="447.25 132.45 437.45 142.37 310.19 13.47 310.19 -111.74 312.15 -111.74 312.15 11.48 437.45 138.4 443.33 132.45 346.77 34.64 348.73 32.65 447.25 132.45" style="fill:#fff; stroke-width:0px;"/><path d="m350.79,31.45c1.44,1.46,1.44,3.82,0,5.27-1.44,1.46-3.77,1.46-5.2,0-1.44-1.46-1.44-3.82,0-5.27,1.44-1.46,3.77-1.46,5.2,0Z" style="fill:#fff; stroke-width:0px;"/><polygon points="359.73 354.22 356.96 354.24 356.35 262.14 195.19 263.22 109.74 177.82 -136.42 177.82 -136.42 175.82 111.69 175.82 196.32 260.41 359.1 259.31 359.73 354.22" style="fill:#fff; stroke-width:0px;"/><polygon points="340.75 448.38 277.54 448.81 277.52 446 337.96 445.59 336.94 290.05 193.19 291.03 95.04 192.91 -136.42 192.91 -136.42 190.92 96.98 190.92 194.32 288.21 339.69 287.23 340.75 448.38" style="fill:#fff; stroke-width:0px;"/><polygon points="317.54 427.37 215.49 428.06 215.1 368.87 217.87 368.85 218.24 425.23 314.75 424.58 314.2 341.82 216.61 342.48 81.2 207.12 -136.42 207.12 -136.42 205.12 83.14 205.12 217.74 339.66 316.95 338.99 317.54 427.37" style="fill:#fff; stroke-width:0px;"/><polygon points="203.26 398.95 200.49 398.96 200.25 362.05 72.67 234.53 -136.42 234.53 -136.42 232.53 74.62 232.53 203.01 360.87 203.26 398.95" style="fill:#fff; stroke-width:0px;"/><polygon points="433.13 392.18 395.53 392.43 394.49 235.41 204.59 236.69 127.48 159.61 -136.42 159.61 -136.42 157.61 129.42 157.61 205.72 233.88 397.24 232.59 398.28 389.61 430.34 389.39 429.68 289.35 432.45 289.33 433.13 392.18" style="fill:#fff; stroke-width:0px;"/><polygon points="224.17 196.23 222.22 198.23 194.92 170.57 214.19 151.06 224.04 161.72 222.09 163.71 213.6 155.11 199.14 169.75 224.17 196.23" style="fill:#fff; stroke-width:0px;"/><polygon points="394.42 199.68 259.65 200.59 222.09 163.71 224.04 161.72 260.78 197.78 391.63 196.9 391.45 170.59 271.79 171.4 271.77 168.59 394.21 167.77 394.42 199.68" style="fill:#fff; stroke-width:0px;"/><path d="m441.4,280.38c-5.6,5.75-14.79,5.82-20.46.14-5.68-5.68-5.74-14.98-.14-20.73,5.6-5.75,14.79-5.82,20.46-.14,5.68,5.68,5.74,14.98.14,20.73Zm-18.63-18.62c-4.53,4.65-4.48,12.17.11,16.76,4.59,4.59,12.01,4.54,16.55-.11,4.53-4.65,4.48-12.17-.11-16.76-4.59-4.59-12.01-4.54-16.55.11Z" style="fill:#fff; stroke-width:0px;"/><path d="m370.15,382.26c-5.6,5.75-14.78,5.82-20.46.14-5.68-5.68-5.74-14.98-.14-20.73,5.6-5.75,14.78-5.82,20.46-.14,5.68,5.68,5.74,14.98.14,20.73Zm-18.63-18.62c-4.53,4.65-4.48,12.17.11,16.76,4.59,4.59,12.01,4.54,16.55-.11,4.53-4.65,4.48-12.17-.11-16.76-4.59-4.59-12.01-4.54-16.55.11Z" style="fill:#fff; stroke-width:0px;"/><path d="m205.55,395.18c2.06,2.06,2.08,5.41.05,7.5s-5.34,2.11-7.4.05c-2.06-2.06-2.08-5.41-.05-7.5,2.03-2.08,5.34-2.11,7.4-.05Z" style="fill:#fff; stroke-width:0px;"/><path d="m226.87,193.46c2.06,2.06,2.08,5.41.05,7.5-2.03,2.08-5.34,2.11-7.4.05-2.06-2.06-2.08-5.41-.05-7.5,2.03-2.08,5.34-2.11,7.4-.05Z" style="fill:#fff; stroke-width:0px;"/><path d="m274.76,167.32c1.45,1.45,1.46,3.81.03,5.27s-3.76,1.48-5.2.04-1.46-3.81-.03-5.27c1.43-1.47,3.76-1.48,5.2-.04Z" style="fill:#fff; stroke-width:0px;"/><path d="m280.11,444.75c1.45,1.45,1.46,3.81.03,5.27s-3.76,1.48-5.2.04c-1.45-1.45-1.46-3.81-.03-5.27s3.76-1.48,5.2-.04Z" style="fill:#fff; stroke-width:0px;"/><path d="m219.08,368.43c1.45,1.45,1.46,3.81.03,5.27-1.43,1.47-3.76,1.48-5.2.04s-1.46-3.81-.03-5.27c1.43-1.47,3.76-1.48,5.2-.04Z" style="fill:#fff; stroke-width:0px;"/><polygon points="176.35 368.99 166.62 378.98 38.52 250.94 -136.42 250.94 -136.42 248.94 40.47 248.94 166.59 375.01 172.43 369.02 75.23 271.86 77.18 269.86 176.35 368.99" style="fill:#fff; stroke-width:0px;"/><path d="m79.23,268.64c1.45,1.45,1.46,3.81.03,5.27s-3.76,1.48-5.2.04c-1.45-1.45-1.46-3.81-.03-5.27,1.43-1.47,3.76-1.48,5.2-.04Z" style="fill:#fff; stroke-width:0px;"/><polygon points="211.6 71.11 208.83 71.13 208.22 -20.98 47.06 -19.89 -38.39 -105.3 -36.44 -107.29 48.19 -22.7 210.97 -23.8 211.6 71.11" style="fill:#fff; stroke-width:0px;"/><polygon points="192.62 165.27 157.78 165.7 157.76 162.89 189.83 162.48 188.81 6.94 45.06 7.91 -81.46 -118.94 -79.52 -120.94 46.19 5.1 191.56 4.12 192.62 165.27" style="fill:#fff; stroke-width:0px;"/><polygon points="169.41 144.25 67.36 144.94 66.97 85.76 69.74 85.74 70.11 142.12 166.62 141.47 166.07 58.7 68.48 59.36 -95.3 -104.73 -93.36 -106.73 69.61 56.55 168.82 55.88 169.41 144.25" style="fill:#fff; stroke-width:0px;"/><polygon points="55.13 115.83 52.36 115.85 52.12 78.94 -132.2 -106.06 -130.26 -108.06 54.88 77.76 55.13 115.83" style="fill:#fff; stroke-width:0px;"/><polygon points="285 109.07 247.4 109.32 246.36 -47.7 56.46 -46.42 -20.65 -123.5 -18.71 -125.5 57.59 -49.23 249.12 -50.53 250.15 106.5 282.21 106.28 281.55 6.24 284.32 6.22 285 109.07" style="fill:#fff; stroke-width:0px;"/><path d="m293.27-2.73c-5.6,5.75-14.79,5.82-20.46.14-5.68-5.68-5.74-14.98-.14-20.73,5.6-5.75,14.79-5.82,20.46-.14,5.68,5.68,5.74,14.98.14,20.73Zm-18.63-18.62c-4.53,4.65-4.48,12.17.11,16.76,4.59,4.59,12.01,4.54,16.55-.11,4.53-4.65,4.48-12.17-.11-16.76-4.59-4.59-12.01-4.54-16.55.11Z" style="fill:#fff; stroke-width:0px;"/><path d="m222.02,99.15c-5.6,5.75-14.78,5.82-20.46.14-5.68-5.68-5.74-14.98-.14-20.73,5.6-5.75,14.78-5.82,20.46-.14,5.68,5.68,5.74,14.98.14,20.73Zm-18.63-18.62c-4.53,4.65-4.48,12.17.11,16.76,4.59,4.59,12.01,4.54,16.55-.11,4.53-4.65,4.48-12.17-.11-16.76-4.59-4.59-12.01-4.54-16.55.11Z" style="fill:#fff; stroke-width:0px;"/><path d="m57.43,112.07c2.06,2.06,2.08,5.41.05,7.5-2.03,2.08-5.34,2.11-7.4.05-2.06-2.06-2.08-5.41-.05-7.5,2.03-2.08,5.34-2.11,7.4-.05Z" style="fill:#fff; stroke-width:0px;"/><path d="m160.36,161.64c1.45,1.45,1.46,3.81.03,5.27-1.43,1.47-3.76,1.48-5.2.04-1.45-1.45-1.46-3.81-.03-5.27,1.43-1.47,3.76-1.48,5.2-.04Z" style="fill:#fff; stroke-width:0px;"/><path d="m70.96,85.32c1.45,1.45,1.46,3.81.03,5.27-1.43,1.47-3.76,1.48-5.2.04-1.45-1.45-1.46-3.81-.03-5.27,1.43-1.47,3.76-1.48,5.2-.04Z" style="fill:#fff; stroke-width:0px;"/><polygon points="28.22 85.88 18.49 95.87 -137.98 -60.92 -136.04 -62.92 18.46 91.9 24.3 85.9 -72.9 -11.25 -70.95 -13.25 28.22 85.88" style="fill:#fff; stroke-width:0px;"/></g></g></svg>