<?xml version="1.0" encoding="UTF-8"?><svg id="_Слой_2" xmlns="http://www.w3.org/2000/svg" width="820.38" height="943.38" xmlns:xlink="http://www.w3.org/1999/xlink" viewBox="0 0 820.38 943.38"><defs><clipPath id="clippath"><rect x="-61.5" y="61.5" width="943.38" height="820.38" transform="translate(881.88 61.5) rotate(90)" style="fill:none; stroke-width:0px;"/></clipPath></defs><g id="_Слой_1-2"><g style="clip-path:url(#clippath);"><polygon points="516.13 180.47 518.08 178.49 582.25 243.5 695.98 128.26 954.76 128.26 954.76 131.07 697.12 131.07 582.25 247.47 516.13 180.47" style="fill:#fff; stroke-width:0px;"/><polygon points="464.45 100.09 509.06 54.89 511.02 56.87 468.36 100.09 576.72 209.88 678.16 107.09 954.76 107.09 954.76 109.9 679.3 109.9 576.72 213.84 464.45 100.09" style="fill:#fff; stroke-width:0px;"/><polygon points="495.49 98.53 567.5 25.56 608.73 67.34 606.77 69.32 567.5 29.52 499.4 98.53 557.05 156.95 625.92 87.17 954.76 87.17 954.76 89.97 627.07 89.97 557.05 160.91 495.49 98.53" style="fill:#fff; stroke-width:0px;"/><polygon points="596.33 37.56 598.28 35.58 623.99 61.64 954.76 61.64 954.76 64.44 622.85 64.44 596.33 37.56" style="fill:#fff; stroke-width:0px;"/><polygon points="437.72 205.63 464.26 178.74 573.64 289.58 707.66 153.79 954.76 153.79 954.76 156.6 708.8 156.6 573.64 293.55 464.26 182.71 441.63 205.63 511.32 276.25 509.37 278.23 437.72 205.63" style="fill:#fff; stroke-width:0px;"/><rect x="721.75" y="193.65" width="229.6" height="2.8" style="fill:#fff; stroke-width:0px;"/><polygon points="598.42 314.92 693.52 218.55 951.35 218.55 951.35 221.36 694.67 221.36 602.33 314.92 620.66 333.48 705.1 247.92 707.05 249.9 620.66 337.45 598.42 314.92" style="fill:#fff; stroke-width:0px;"/><polygon points="668.23 321.4 726.09 262.77 951.35 262.77 951.35 265.57 727.24 265.57 670.18 323.38 668.23 321.4" style="fill:#fff; stroke-width:0px;"/><polygon points="692.19 327 736.54 282.07 951.35 282.07 951.35 284.87 737.68 284.87 694.15 328.98 692.19 327" style="fill:#fff; stroke-width:0px;"/><path d="m665.67,341.23c0-8.07,6.48-14.63,14.44-14.63s14.44,6.56,14.44,14.63-6.48,14.63-14.44,14.63-14.44-6.56-14.44-14.63Zm26.12,0c0-6.52-5.24-11.83-11.68-11.83s-11.68,5.31-11.68,11.83,5.24,11.83,11.68,11.83,11.68-5.31,11.68-11.83Z" style="fill:#fff; stroke-width:0px;"/><path d="m509.21,290.94c0-8.07,6.48-14.63,14.44-14.63s14.44,6.56,14.44,14.63-6.48,14.63-14.44,14.63-14.44-6.56-14.44-14.63Zm26.12,0c0-6.52-5.24-11.83-11.68-11.83s-11.68,5.31-11.68,11.83,5.24,11.83,11.68,11.83,11.68-5.31,11.68-11.83Z" style="fill:#fff; stroke-width:0px;"/><path d="m489.32,167.95c0-8.07,6.48-14.63,14.44-14.63s14.44,6.56,14.44,14.63-6.48,14.63-14.44,14.63-14.44-6.56-14.44-14.63Zm26.12,0c0-6.52-5.24-11.83-11.68-11.83s-11.68,5.31-11.68,11.83,5.24,11.83,11.68,11.83,11.68-5.31,11.68-11.83Z" style="fill:#fff; stroke-width:0px;"/><path d="m597.3,41.87c-2.88,0-5.22-2.37-5.22-5.29s2.34-5.29,5.22-5.29,5.22,2.37,5.22,5.29-2.34,5.29-5.22,5.29Z" style="fill:#fff; stroke-width:0px;"/><path d="m721.75,200.34c-2.88,0-5.22-2.37-5.22-5.29s2.34-5.29,5.22-5.29,5.22,2.37,5.22,5.29-2.34,5.29-5.22,5.29Z" style="fill:#fff; stroke-width:0px;"/><ellipse cx="669.2" cy="322.39" rx="5.22" ry="5.29" style="fill:#fff; stroke-width:0px;"/><path d="m705.81,252.93c-2.03,0-3.67-1.67-3.67-3.72s1.64-3.72,3.67-3.72,3.67,1.67,3.67,3.72-1.64,3.72-3.67,3.72Z" style="fill:#fff; stroke-width:0px;"/><ellipse cx="510.04" cy="55.88" rx="3.67" ry="3.72" style="fill:#fff; stroke-width:0px;"/><path d="m606.2,70.48c-2.03,0-3.67-1.67-3.67-3.72s1.64-3.72,3.67-3.72,3.67,1.67,3.67,3.72-1.64,3.72-3.67,3.72Z" style="fill:#fff; stroke-width:0px;"/><polygon points="636.17 39.73 636.17 25.72 957.34 25.72 957.34 28.52 638.94 28.52 638.94 36.93 775.21 36.93 775.21 39.73 636.17 39.73" style="fill:#fff; stroke-width:0px;"/><path d="m774.6,42.05c-2.03,0-3.67-1.67-3.67-3.72s1.64-3.72,3.67-3.72,3.67,1.67,3.67,3.72-1.64,3.72-3.67,3.72Z" style="fill:#fff; stroke-width:0px;"/><polygon points="23.2 240.35 21.24 238.37 85.41 173.35 -28.33 58.11 -28.33 -90.13 -25.56 -90.13 -25.56 56.95 89.32 173.35 23.2 240.35" style="fill:#fff; stroke-width:0px;"/><polygon points="-56.13 292.71 -100.74 247.51 -98.79 245.53 -56.13 288.75 52.22 178.96 -49.22 76.17 -49.22 -90.13 -46.45 -90.13 -46.45 75.01 56.13 178.96 -56.13 292.71" style="fill:#fff; stroke-width:0px;"/><polygon points="-57.67 261.27 -129.68 188.3 -88.45 146.52 -86.5 148.5 -125.77 188.3 -57.67 257.3 -.02 198.88 -68.88 129.1 -68.88 -90.13 -66.12 -90.13 -66.12 127.94 3.9 198.88 -57.67 261.27" style="fill:#fff; stroke-width:0px;"/><polygon points="48.03 319.8 21.49 292.91 130.88 182.07 -3.13 46.28 -3.13 -90.13 -.36 -90.13 -.36 45.12 134.79 182.07 25.4 292.91 48.03 315.84 117.72 245.22 119.68 247.2 48.03 319.8" style="fill:#fff; stroke-width:0px;"/><rect x="36.2" y="-90.13" width="2.77" height="122.13" style="fill:#fff; stroke-width:0px;"/><polygon points="155.88 156.96 60.78 60.6 60.78 -90.13 63.55 -90.13 63.55 59.44 155.88 153 174.21 134.43 89.76 48.87 91.72 46.89 178.12 134.43 155.88 156.96" style="fill:#fff; stroke-width:0px;"/><polygon points="162.28 86.23 104.41 27.6 104.41 -85.01 107.18 -85.01 107.18 26.44 164.23 84.25 162.28 86.23" style="fill:#fff; stroke-width:0px;"/><polygon points="167.81 61.95 123.46 17.01 123.46 -28.95 143.31 -30.18 141.36 -25.33 126.23 -24.19 126.23 15.85 169.76 59.97 167.81 61.95" style="fill:#fff; stroke-width:0px;"/><path d="m181.85,88.82c-7.96,0-14.44-6.56-14.44-14.63s6.48-14.63,14.44-14.63,14.44,6.56,14.44,14.63-6.48,14.63-14.44,14.63Zm0-26.46c-6.44,0-11.68,5.31-11.68,11.83s5.24,11.83,11.68,11.83,11.68-5.31,11.68-11.83-5.24-11.83-11.68-11.83Z" style="fill:#fff; stroke-width:0px;"/><path d="m132.22,247.37c-7.96,0-14.44-6.56-14.44-14.63s6.48-14.63,14.44-14.63,14.44,6.56,14.44,14.63-6.48,14.63-14.44,14.63Zm0-26.46c-6.44,0-11.68,5.31-11.68,11.83s5.24,11.83,11.68,11.83,11.68-5.31,11.68-11.83-5.24-11.83-11.68-11.83Z" style="fill:#fff; stroke-width:0px;"/><path d="m10.84,267.52c-7.96,0-14.44-6.56-14.44-14.63s6.48-14.63,14.44-14.63,14.44,6.56,14.44,14.63-6.48,14.63-14.44,14.63Zm0-26.46c-6.44,0-11.68,5.31-11.68,11.83s5.24,11.83,11.68,11.83,11.68-5.31,11.68-11.83-5.24-11.83-11.68-11.83Z" style="fill:#fff; stroke-width:0px;"/><path d="m42.81,32c0,2.92-2.34,5.29-5.22,5.29s-5.22-2.37-5.22-5.29,2.34-5.29,5.22-5.29,5.22,2.37,5.22,5.29Z" style="fill:#fff; stroke-width:0px;"/><path d="m168.48,85.24c0,2.92-2.34,5.29-5.22,5.29s-5.22-2.37-5.22-5.29,2.34-5.29,5.22-5.29,5.22,2.37,5.22,5.29Z" style="fill:#fff; stroke-width:0px;"/><path d="m94.71,48.15c0,2.06-1.64,3.72-3.67,3.72s-3.67-1.67-3.67-3.72,1.64-3.72,3.67-3.72,3.67,1.67,3.67,3.72Z" style="fill:#fff; stroke-width:0px;"/><polygon points="406.27 21.38 403.51 21.38 403.51 -70.57 242.67 -70.57 157.96 -156.4 159.92 -158.38 243.81 -73.37 406.27 -73.37 406.27 21.38" style="fill:#fff; stroke-width:0px;"/><polygon points="386.72 115.25 323.63 115.25 323.63 112.44 383.95 112.44 383.95 -42.83 240.49 -42.83 143.19 -141.43 145.14 -143.41 241.64 -45.63 386.72 -45.63 386.72 115.25" style="fill:#fff; stroke-width:0px;"/><polygon points="363.69 94.11 261.85 94.11 261.85 35.03 264.61 35.03 264.61 91.31 360.92 91.31 360.92 8.69 263.53 8.69 129.28 -127.34 131.24 -129.32 264.67 5.89 363.69 5.89 363.69 94.11" style="fill:#fff; stroke-width:0px;"/><polygon points="249.84 64.97 247.07 64.97 247.07 28.12 120.59 -100.04 122.55 -102.02 249.84 26.96 249.84 64.97" style="fill:#fff; stroke-width:0px;"/><polygon points="479.28 59.77 441.75 59.77 441.75 -96.98 252.23 -96.98 175.78 -174.45 177.73 -176.43 253.37 -99.79 444.51 -99.79 444.51 56.96 476.51 56.96 476.51 -42.91 479.28 -42.91 479.28 59.77" style="fill:#fff; stroke-width:0px;"/><path d="m416.49,49.44c-5.63,5.71-14.79,5.71-20.42,0-5.63-5.71-5.63-14.99,0-20.69,5.63-5.71,14.79-5.71,20.42,0,5.63,5.71,5.63,14.99,0,20.69Zm-18.47-18.71c-4.55,4.61-4.55,12.12,0,16.73,4.55,4.61,11.96,4.61,16.51,0,4.55-4.61,4.55-12.12,0-16.73-4.55-4.61-11.96-4.61-16.51,0Z" style="fill:#fff; stroke-width:0px;"/><path d="m252.15,61.23c2.04,2.07,2.04,5.42,0,7.49-2.04,2.07-5.35,2.07-7.39,0-2.04-2.07-2.04-5.42,0-7.49,2.04-2.07,5.35-2.07,7.39,0Z" style="fill:#fff; stroke-width:0px;"/><path d="m326.23,111.21c1.43,1.45,1.43,3.81,0,5.26-1.43,1.45-3.76,1.45-5.19,0-1.43-1.45-1.43-3.81,0-5.26,1.43-1.45,3.76-1.45,5.19,0Z" style="fill:#fff; stroke-width:0px;"/><ellipse cx="263.23" cy="37.25" rx="3.67" ry="3.72" style="fill:#fff; stroke-width:0px;"/><polygon points="223.18 34.89 213.4 44.79 141.36 -25.33 143.31 -30.18 213.4 40.83 219.26 34.89 122.9 -62.75 124.86 -64.74 223.18 34.89" style="fill:#fff; stroke-width:0px;"/><polygon points="460.19 751.36 460.78 754.09 372.12 773.68 406.39 932.92 313.37 1063.75 311.04 1062.24 403.45 932.38 368.83 771.54 460.19 751.36" style="fill:#fff; stroke-width:0px;"/><polygon points="554.87 750.72 568.31 813.17 565.61 813.77 552.75 754.05 403.04 787.13 433.6 929.16 359.26 1046.5 356.94 1044.99 430.66 928.62 399.75 784.99 554.87 750.72" style="fill:#fff; stroke-width:0px;"/><polygon points="539.39 778.02 561.09 878.84 504.12 891.43 503.53 888.69 557.8 876.7 537.28 781.35 457.62 798.96 478.37 895.38 375.81 1057.27 373.48 1055.75 475.42 894.84 454.33 796.82 539.39 778.02" style="fill:#fff; stroke-width:0px;"/><polygon points="535.55 896.94 536.14 899.68 500.61 907.53 403.99 1060.05 401.66 1058.54 498.91 905.04 535.55 896.94" style="fill:#fff; stroke-width:0px;"/><polygon points="481.65 670.9 489.65 708.06 338.5 741.46 378.88 929.08 292.16 1049.96 289.83 1048.45 375.94 928.54 335.21 739.31 486.36 705.92 479.54 674.24 383.24 695.52 382.65 692.78 481.65 670.9" style="fill:#fff; stroke-width:0px;"/><polygon points="335.84 918.06 338.17 919.57 234.4 1051.36 232.08 1049.85 335.84 918.06" style="fill:#fff; stroke-width:0px;"/><polygon points="304.08 748.9 332.73 882.05 210.06 1043.67 207.74 1042.15 329.79 881.51 301.96 752.23 276.64 757.83 302.09 876.05 299.39 876.65 273.35 755.69 304.08 748.9" style="fill:#fff; stroke-width:0px;"/><polygon points="260.98 804.92 278.42 885.93 147.36 1044.81 145.03 1043.29 275.47 885.4 258.28 805.52 260.98 804.92" style="fill:#fff; stroke-width:0px;"/><polygon points="243.38 822.33 256.75 884.42 135.97 1027.04 133.65 1025.53 253.8 883.88 240.68 822.93 243.38 822.33" style="fill:#fff; stroke-width:0px;"/><path d="m245.9,792.03c6.7,4.36,8.65,13.43,4.35,20.22-4.3,6.79-13.25,8.77-19.95,4.41-6.7-4.36-8.65-13.43-4.35-20.22,4.3-6.79,13.25-8.77,19.95-4.41Zm-14.11,22.27c5.42,3.52,12.66,1.92,16.13-3.56,3.48-5.49,1.9-12.82-3.52-16.35-5.42-3.52-12.66-1.92-16.13,3.57-3.48,5.49-1.9,12.82,3.52,16.35Z" style="fill:#fff; stroke-width:0px;"/><path d="m372.18,685.77c6.7,4.36,8.65,13.43,4.35,20.22-4.3,6.79-13.25,8.77-19.95,4.41-6.7-4.36-8.65-13.43-4.35-20.22,4.3-6.79,13.25-8.77,19.95-4.41Zm-14.11,22.27c5.42,3.52,12.66,1.92,16.13-3.56,3.48-5.49,1.9-12.82-3.52-16.35-5.42-3.52-12.66-1.92-16.13,3.57-3.48,5.49-1.9,12.82,3.52,16.35Z" style="fill:#fff; stroke-width:0px;"/><path d="m485.07,735.26c6.7,4.36,8.65,13.43,4.35,20.22-4.3,6.79-13.25,8.77-19.95,4.41-6.7-4.36-8.65-13.43-4.35-20.22,4.3-6.79,13.25-8.77,19.95-4.41Zm-14.11,22.27c5.42,3.52,12.66,1.92,16.13-3.56,3.48-5.49,1.9-12.82-3.52-16.35-5.42-3.52-12.66-1.92-16.13,3.56-3.48,5.49-1.9,12.82,3.52,16.35Z" style="fill:#fff; stroke-width:0px;"/><path d="m531.45,895.45c1.56-2.46,4.79-3.17,7.22-1.59,2.43,1.58,3.13,4.85,1.57,7.31-1.56,2.46-4.79,3.17-7.22,1.59-2.43-1.58-3.13-4.85-1.57-7.31Z" style="fill:#fff; stroke-width:0px;"/><path d="m332.61,915.95c1.56-2.46,4.79-3.17,7.22-1.59,2.43,1.58,3.13,4.85,1.57,7.31-1.56,2.46-4.79,3.17-7.22,1.59-2.43-1.58-3.13-4.85-1.57-7.31Z" style="fill:#fff; stroke-width:0px;"/><path d="m255.24,802.36c1.56-2.46,4.79-3.17,7.22-1.59,2.43,1.58,3.13,4.85,1.57,7.31-1.56,2.46-4.79,3.17-7.22,1.59-2.43-1.58-3.13-4.85-1.57-7.31Z" style="fill:#fff; stroke-width:0px;"/><path d="m297.54,873.96c1.1-1.73,3.37-2.23,5.07-1.12,1.71,1.11,2.2,3.41,1.11,5.14-1.1,1.73-3.37,2.23-5.07,1.12-1.71-1.11-2.2-3.41-1.11-5.14Z" style="fill:#fff; stroke-width:0px;"/><path d="m563.87,811.46c1.1-1.73,3.37-2.23,5.07-1.12s2.2,3.41,1.11,5.14c-1.1,1.73-3.37,2.23-5.07,1.12-1.71-1.11-2.2-3.41-1.11-5.14Z" style="fill:#fff; stroke-width:0px;"/><path d="m502.88,887.58c1.1-1.73,3.37-2.23,5.07-1.12,1.71,1.11,2.2,3.41,1.11,5.14-1.1,1.73-3.37,2.23-5.07,1.12s-2.2-3.41-1.11-5.14Z" style="fill:#fff; stroke-width:0px;"/><polygon points="512.23 929.75 523.86 937.31 426.84 1090.46 424.51 1088.94 520.04 938.16 513.06 933.62 439.44 1049.82 437.12 1048.3 512.23 929.75" style="fill:#fff; stroke-width:0px;"/><polygon points="827.56 796.35 828.15 799.09 739.5 818.68 773.77 977.91 709.05 1080.06 706.73 1078.55 770.82 977.38 736.21 816.54 827.56 796.35" style="fill:#fff; stroke-width:0px;"/><polygon points="922.24 795.71 935.68 858.17 932.98 858.77 920.13 799.05 770.41 832.13 800.98 974.15 726.64 1091.5 724.31 1089.98 798.03 973.62 767.12 829.99 922.24 795.71" style="fill:#fff; stroke-width:0px;"/><polygon points="906.77 823.02 928.47 923.84 871.5 936.43 870.91 933.69 925.18 921.7 904.66 826.35 824.99 843.95 845.74 940.38 743.19 1102.26 740.86 1100.75 842.8 939.84 821.7 841.81 906.77 823.02" style="fill:#fff; stroke-width:0px;"/><polygon points="902.93 941.94 903.52 944.67 867.99 952.53 771.36 1105.05 769.03 1103.54 866.28 950.04 902.93 941.94" style="fill:#fff; stroke-width:0px;"/><polygon points="849.02 715.9 857.02 753.05 705.87 786.45 746.26 974.08 687.85 1066.27 685.52 1064.76 743.31 973.54 702.58 784.31 853.73 750.91 846.91 719.23 750.61 740.51 750.02 737.78 849.02 715.9" style="fill:#fff; stroke-width:0px;"/><polygon points="671.45 793.9 700.11 927.04 634.07 1031.29 631.74 1029.77 697.16 926.51 669.34 797.23 644.02 802.82 669.46 921.05 666.76 921.65 640.73 800.68 671.45 793.9" style="fill:#fff; stroke-width:0px;"/><polygon points="628.36 849.92 645.79 930.93 543.04 1061.11 540.72 1059.6 642.85 930.39 625.66 850.51 628.36 849.92" style="fill:#fff; stroke-width:0px;"/><polygon points="610.76 867.33 624.12 929.41 531.66 1043.35 529.33 1041.84 621.17 928.87 608.06 867.92 610.76 867.33" style="fill:#fff; stroke-width:0px;"/><path d="m613.27,837.03c6.7,4.36,8.65,13.43,4.35,20.22-4.3,6.79-13.25,8.77-19.95,4.41-6.7-4.36-8.65-13.43-4.35-20.22,4.3-6.79,13.25-8.77,19.95-4.41Zm-14.11,22.27c5.42,3.52,12.66,1.92,16.13-3.56,3.48-5.49,1.9-12.82-3.52-16.35s-12.66-1.92-16.13,3.57c-3.48,5.49-1.9,12.82,3.52,16.35Z" style="fill:#fff; stroke-width:0px;"/><path d="m739.56,730.77c6.7,4.36,8.65,13.43,4.35,20.22-4.3,6.79-13.25,8.77-19.95,4.41-6.7-4.36-8.65-13.43-4.35-20.22,4.3-6.79,13.25-8.77,19.95-4.41Zm-14.11,22.27c5.42,3.52,12.66,1.92,16.13-3.56,3.48-5.49,1.9-12.82-3.52-16.35-5.42-3.52-12.66-1.92-16.13,3.57-3.48,5.49-1.9,12.82,3.52,16.35Z" style="fill:#fff; stroke-width:0px;"/><path d="m622.61,847.36c1.56-2.46,4.79-3.17,7.22-1.59,2.43,1.58,3.13,4.85,1.57,7.31-1.56,2.46-4.79,3.17-7.22,1.59-2.43-1.58-3.13-4.85-1.57-7.31Z" style="fill:#fff; stroke-width:0px;"/><path d="m664.92,918.95c1.1-1.73,3.37-2.23,5.07-1.12,1.71,1.11,2.2,3.41,1.11,5.14-1.1,1.73-3.37,2.23-5.07,1.12-1.71-1.11-2.2-3.41-1.11-5.14Z" style="fill:#fff; stroke-width:0px;"/><polygon points="528.08 493.59 530.79 493.03 549.05 583.09 706.6 550.28 834.94 617.08 962.15 617.08 962.15 619.42 833.42 619.42 706.04 553.26 546.9 586.4 528.08 493.59" style="fill:#fff; stroke-width:0px;"/><polygon points="528.59 397.66 590.38 384.79 590.94 387.53 531.85 399.84 562.7 551.93 703.22 522.67 846.44 599.4 962.15 599.4 962.15 601.74 844.92 601.74 702.65 525.65 560.55 555.24 528.59 397.66" style="fill:#fff; stroke-width:0px;"/><polygon points="555.34 413.66 655.1 392.89 666.84 450.76 664.13 451.33 652.95 396.2 558.61 415.84 575.02 496.77 670.43 476.9 857.26 582.76 962.15 582.76 962.15 585.1 855.74 585.1 669.86 479.88 572.87 500.08 555.34 413.66" style="fill:#fff; stroke-width:0px;"/><polygon points="672.65 418.98 675.36 418.42 682.68 454.51 860.35 554.25 962.15 554.25 962.15 556.59 858.83 556.59 680.2 456.21 672.65 418.98" style="fill:#fff; stroke-width:0px;"/><polygon points="448.94 470.88 485.7 463.22 516.85 616.77 702.49 578.11 821.07 638.4 962.15 638.4 962.15 640.73 819.55 640.73 701.92 581.09 514.69 620.08 483.55 466.53 452.21 473.06 472.05 570.89 469.34 571.45 448.94 470.88" style="fill:#fff; stroke-width:0px;"/><polygon points="691.09 621.58 692.61 619.24 793.79 667.9 962.15 667.9 962.15 670.24 792.26 670.24 691.09 621.58" style="fill:#fff; stroke-width:0px;"/><polygon points="523.78 651.73 655.51 624.3 785.9 692.47 962.15 692.47 962.15 694.81 784.38 694.81 654.95 627.28 527.04 653.91 532.26 679.64 649.23 655.28 649.79 658.02 530.11 682.94 523.78 651.73" style="fill:#fff; stroke-width:0px;"/><polygon points="578.54 696.07 658.7 679.38 729.99 726.98 728.47 729.32 658.13 682.36 579.1 698.81 578.54 696.07" style="fill:#fff; stroke-width:0px;"/><polygon points="595.51 714.11 656.94 701.32 712.32 738.31 710.8 740.64 656.37 704.3 596.07 716.86 595.51 714.11" style="fill:#fff; stroke-width:0px;"/><path d="m565.64,711.2c4.38-6.74,13.36-8.61,20.01-4.17,6.65,4.44,8.49,13.53,4.11,20.27-4.38,6.74-13.36,8.61-20.01,4.17-6.65-4.44-8.49-13.53-4.11-20.27Zm21.81,14.56c3.54-5.45,2.05-12.8-3.32-16.39-5.38-3.59-12.63-2.08-16.17,3.37-3.54,5.45-2.05,12.8,3.32,16.39,5.38,3.59,12.63,2.08,16.17-3.37Z" style="fill:#fff; stroke-width:0px;"/><path d="m462.3,581.97c4.38-6.74,13.36-8.61,20.01-4.17,6.65,4.44,8.49,13.53,4.11,20.27-4.38,6.74-13.36,8.61-20.01,4.17-6.65-4.44-8.49-13.53-4.11-20.27Zm21.81,14.56c3.54-5.45,2.05-12.8-3.32-16.39-5.38-3.59-12.63-2.08-16.17,3.37-3.54,5.45-2.05,12.8,3.32,16.39,5.38,3.59,12.63,2.08,16.17-3.37Z" style="fill:#fff; stroke-width:0px;"/><path d="m512.49,468.18c4.38-6.74,13.36-8.61,20.01-4.17,6.65,4.44,8.49,13.53,4.11,20.27-4.38,6.74-13.36,8.61-20.01,4.17-6.65-4.44-8.49-13.53-4.11-20.27Zm21.81,14.56c3.54-5.45,2.05-12.8-3.32-16.39-5.38-3.59-12.63-2.08-16.17,3.37-3.54,5.45-2.05,12.8,3.32,16.39,5.38,3.59,12.63,2.08,16.17-3.37Z" style="fill:#fff; stroke-width:0px;"/><path d="m671.13,423.12c-2.41-1.61-3.07-4.89-1.49-7.33,1.59-2.44,4.83-3.12,7.24-1.51,2.41,1.61,3.07,4.89,1.49,7.33-1.59,2.44-4.83,3.12-7.24,1.51Z" style="fill:#fff; stroke-width:0px;"/><path d="m688.97,624.83c-2.41-1.61-3.07-4.89-1.49-7.33,1.59-2.44,4.83-3.12,7.24-1.51,2.41,1.61,3.07,4.89,1.49,7.33-1.59,2.44-4.83,3.12-7.24,1.51Z" style="fill:#fff; stroke-width:0px;"/><path d="m575.95,701.86c-2.41-1.61-3.07-4.89-1.49-7.33,1.59-2.44,4.83-3.12,7.24-1.51,2.41,1.61,3.07,4.89,1.49,7.33-1.59,2.44-4.83,3.12-7.24,1.51Z" style="fill:#fff; stroke-width:0px;"/><path d="m647.11,659.86c-1.69-1.13-2.16-3.44-1.05-5.16,1.12-1.72,3.39-2.19,5.09-1.06,1.69,1.13,2.16,3.44,1.05,5.16-1.12,1.72-3.39,2.19-5.09,1.06Z" style="fill:#fff; stroke-width:0px;"/><path d="m588.64,389.27c-1.69-1.13-2.16-3.44-1.05-5.16,1.12-1.72,3.39-2.19,5.09-1.06,1.69,1.13,2.16,3.44,1.05,5.16-1.12,1.72-3.39,2.19-5.09,1.06Z" style="fill:#fff; stroke-width:0px;"/><path d="m663.02,451.97c-1.69-1.13-2.16-3.44-1.05-5.16,1.12-1.72,3.39-2.19,5.09-1.06,1.69,1.13,2.16,3.44,1.05,5.16-1.12,1.72-3.39,2.19-5.09,1.06Z" style="fill:#fff; stroke-width:0px;"/><polygon points="704.75 443.01 712.35 431.32 890.63 531.46 962.15 531.46 962.15 533.8 889.11 533.8 713.14 435.2 708.58 442.22 822.36 506.73 820.84 509.07 704.75 443.01" style="fill:#fff; stroke-width:0px;"/><path d="m819.07,510.66c-1.69-1.13-2.16-3.44-1.05-5.16s3.39-2.19,5.09-1.06c1.69,1.13,2.16,3.44,1.05,5.16-1.12,1.72-3.39,2.19-5.09,1.06Z" style="fill:#fff; stroke-width:0px;"/></g></g></svg>