<?xml version="1.0" encoding="UTF-8"?><svg id="_Слой_2" xmlns="http://www.w3.org/2000/svg" width="820.38" height="465.02" xmlns:xlink="http://www.w3.org/1999/xlink" viewBox="0 0 820.38 465.02"><defs><clipPath id="clippath"><rect x="177.68" y="-177.68" width="465.02" height="820.38" transform="translate(642.7 -177.68) rotate(90)" style="fill:none; stroke-width:0px;"/></clipPath></defs><g id="_Слой_1-2"><g style="clip-path:url(#clippath);"><polygon points="516.13 180.77 518.08 178.79 582.25 243.91 695.98 128.48 954.76 128.48 954.76 131.29 697.12 131.29 582.25 247.88 516.13 180.77" style="fill:#fff; stroke-width:0px;"/><polygon points="464.45 100.26 509.06 54.98 511.02 56.96 468.36 100.26 576.72 210.23 678.16 107.27 954.76 107.27 954.76 110.08 679.3 110.08 576.72 214.2 464.45 100.26" style="fill:#fff; stroke-width:0px;"/><polygon points="495.49 98.7 567.5 25.61 608.73 67.45 606.77 69.44 567.5 29.57 499.4 98.7 557.05 157.21 625.92 87.31 954.76 87.31 954.76 90.12 627.07 90.12 557.05 161.18 495.49 98.7" style="fill:#fff; stroke-width:0px;"/><polygon points="596.33 37.63 598.28 35.64 623.99 61.74 954.76 61.74 954.76 64.55 622.85 64.55 596.33 37.63" style="fill:#fff; stroke-width:0px;"/><polygon points="437.72 205.98 464.26 179.04 573.64 290.07 707.66 154.05 954.76 154.05 954.76 156.86 708.8 156.86 573.64 294.04 464.26 183.01 441.63 205.98 511.32 276.72 509.37 278.7 437.72 205.98" style="fill:#fff; stroke-width:0px;"/><rect x="721.75" y="193.97" width="229.6" height="2.81" style="fill:#fff; stroke-width:0px;"/><polygon points="598.42 315.45 693.52 218.92 951.35 218.92 951.35 221.73 694.67 221.73 602.33 315.45 620.66 334.04 705.1 248.34 707.05 250.32 620.66 338.01 598.42 315.45" style="fill:#fff; stroke-width:0px;"/><polygon points="668.23 321.94 726.09 263.21 951.35 263.21 951.35 266.01 727.24 266.01 670.18 323.92 668.23 321.94" style="fill:#fff; stroke-width:0px;"/><polygon points="692.19 327.55 736.54 282.54 951.35 282.54 951.35 285.35 737.68 285.35 694.15 329.54 692.19 327.55" style="fill:#fff; stroke-width:0px;"/><path d="m665.67,341.8c0-8.08,6.48-14.66,14.44-14.66s14.44,6.58,14.44,14.66-6.48,14.66-14.44,14.66-14.44-6.58-14.44-14.66Zm26.12,0c0-6.53-5.24-11.85-11.68-11.85s-11.68,5.32-11.68,11.85,5.24,11.85,11.68,11.85,11.68-5.32,11.68-11.85Z" style="fill:#fff; stroke-width:0px;"/><path d="m509.21,291.43c0-8.08,6.48-14.66,14.44-14.66s14.44,6.58,14.44,14.66-6.48,14.66-14.44,14.66-14.44-6.58-14.44-14.66Zm26.12,0c0-6.53-5.24-11.85-11.68-11.85s-11.68,5.32-11.68,11.85,5.24,11.85,11.68,11.85,11.68-5.32,11.68-11.85Z" style="fill:#fff; stroke-width:0px;"/><path d="m489.32,168.23c0-8.08,6.48-14.66,14.44-14.66s14.44,6.58,14.44,14.66-6.48,14.66-14.44,14.66-14.44-6.58-14.44-14.66Zm26.12,0c0-6.53-5.24-11.85-11.68-11.85s-11.68,5.32-11.68,11.85,5.24,11.85,11.68,11.85,11.68-5.32,11.68-11.85Z" style="fill:#fff; stroke-width:0px;"/><path d="m597.3,41.94c-2.88,0-5.22-2.37-5.22-5.3s2.34-5.3,5.22-5.3,5.22,2.37,5.22,5.3-2.34,5.3-5.22,5.3Z" style="fill:#fff; stroke-width:0px;"/><path d="m721.75,200.68c-2.88,0-5.22-2.37-5.22-5.3s2.34-5.3,5.22-5.3,5.22,2.37,5.22,5.3-2.34,5.3-5.22,5.3Z" style="fill:#fff; stroke-width:0px;"/><ellipse cx="669.2" cy="322.93" rx="5.22" ry="5.3" style="fill:#fff; stroke-width:0px;"/><path d="m705.81,253.35c-2.03,0-3.67-1.67-3.67-3.73s1.64-3.73,3.67-3.73,3.67,1.67,3.67,3.73-1.64,3.73-3.67,3.73Z" style="fill:#fff; stroke-width:0px;"/><ellipse cx="510.04" cy="55.97" rx="3.67" ry="3.73" style="fill:#fff; stroke-width:0px;"/><path d="m606.2,70.6c-2.03,0-3.67-1.67-3.67-3.73s1.64-3.73,3.67-3.73,3.67,1.67,3.67,3.73-1.64,3.73-3.67,3.73Z" style="fill:#fff; stroke-width:0px;"/><polygon points="636.17 39.8 636.17 25.77 957.34 25.77 957.34 28.57 638.94 28.57 638.94 36.99 775.21 36.99 775.21 39.8 636.17 39.8" style="fill:#fff; stroke-width:0px;"/><path d="m774.6,42.12c-2.03,0-3.67-1.67-3.67-3.73s1.64-3.73,3.67-3.73,3.67,1.67,3.67,3.73-1.64,3.73-3.67,3.73Z" style="fill:#fff; stroke-width:0px;"/><polygon points="23.2 240.75 21.24 238.77 85.41 173.64 -28.33 58.21 -28.33 -90.28 -25.56 -90.28 -25.56 57.05 89.32 173.64 23.2 240.75" style="fill:#fff; stroke-width:0px;"/><polygon points="-56.13 293.2 -100.74 247.93 -98.79 245.94 -56.13 289.23 52.22 179.26 -49.22 76.3 -49.22 -90.28 -46.45 -90.28 -46.45 75.14 56.13 179.26 -56.13 293.2" style="fill:#fff; stroke-width:0px;"/><polygon points="-57.67 261.7 -129.68 188.61 -88.45 146.77 -86.5 148.75 -125.77 188.61 -57.67 257.74 -.02 199.22 -68.88 129.32 -68.88 -90.28 -66.12 -90.28 -66.12 128.15 3.9 199.22 -57.67 261.7" style="fill:#fff; stroke-width:0px;"/><polygon points="48.03 320.34 21.49 293.4 130.88 182.38 -3.13 46.36 -3.13 -90.28 -.36 -90.28 -.36 45.2 134.79 182.38 25.4 293.4 48.03 316.37 117.72 245.63 119.68 247.61 48.03 320.34" style="fill:#fff; stroke-width:0px;"/><rect x="36.2" y="-90.28" width="2.77" height="122.34" style="fill:#fff; stroke-width:0px;"/><polygon points="155.88 157.23 60.78 60.7 60.78 -90.28 63.55 -90.28 63.55 59.54 155.88 153.26 174.21 134.66 89.76 48.95 91.72 46.97 178.12 134.66 155.88 157.23" style="fill:#fff; stroke-width:0px;"/><polygon points="162.28 86.38 104.41 27.65 104.41 -85.15 107.18 -85.15 107.18 26.48 164.23 84.39 162.28 86.38" style="fill:#fff; stroke-width:0px;"/><polygon points="167.81 62.05 123.46 17.04 123.46 -29 143.31 -30.24 141.36 -25.38 126.23 -24.23 126.23 15.88 169.76 60.07 167.81 62.05" style="fill:#fff; stroke-width:0px;"/><path d="m181.85,88.97c-7.96,0-14.44-6.58-14.44-14.66s6.48-14.66,14.44-14.66,14.44,6.58,14.44,14.66-6.48,14.66-14.44,14.66Zm0-26.51c-6.44,0-11.68,5.32-11.68,11.85s5.24,11.85,11.68,11.85,11.68-5.32,11.68-11.85-5.24-11.85-11.68-11.85Z" style="fill:#fff; stroke-width:0px;"/><path d="m132.22,247.78c-7.96,0-14.44-6.58-14.44-14.66s6.48-14.66,14.44-14.66,14.44,6.58,14.44,14.66-6.48,14.66-14.44,14.66Zm0-26.51c-6.44,0-11.68,5.32-11.68,11.85s5.24,11.85,11.68,11.85,11.68-5.32,11.68-11.85-5.24-11.85-11.68-11.85Z" style="fill:#fff; stroke-width:0px;"/><path d="m10.84,267.96c-7.96,0-14.44-6.58-14.44-14.66s6.48-14.66,14.44-14.66,14.44,6.58,14.44,14.66-6.48,14.66-14.44,14.66Zm0-26.51c-6.44,0-11.68,5.32-11.68,11.85s5.24,11.85,11.68,11.85,11.68-5.32,11.68-11.85-5.24-11.85-11.68-11.85Z" style="fill:#fff; stroke-width:0px;"/><path d="m42.81,32.06c0,2.93-2.34,5.3-5.22,5.3s-5.22-2.37-5.22-5.3,2.34-5.3,5.22-5.3,5.22,2.37,5.22,5.3Z" style="fill:#fff; stroke-width:0px;"/><path d="m168.48,85.38c0,2.93-2.34,5.3-5.22,5.3s-5.22-2.37-5.22-5.3,2.34-5.3,5.22-5.3,5.22,2.37,5.22,5.3Z" style="fill:#fff; stroke-width:0px;"/><path d="m94.71,48.23c0,2.06-1.64,3.73-3.67,3.73s-3.67-1.67-3.67-3.73,1.64-3.73,3.67-3.73,3.67,1.67,3.67,3.73Z" style="fill:#fff; stroke-width:0px;"/><polygon points="406.27 21.41 403.51 21.41 403.51 -70.68 242.67 -70.68 157.96 -156.66 159.92 -158.64 243.81 -73.49 406.27 -73.49 406.27 21.41" style="fill:#fff; stroke-width:0px;"/><polygon points="386.72 115.44 323.63 115.44 323.63 112.63 383.95 112.63 383.95 -42.9 240.49 -42.9 143.19 -141.66 145.14 -143.65 241.64 -45.7 386.72 -45.7 386.72 115.44" style="fill:#fff; stroke-width:0px;"/><polygon points="363.69 94.27 261.85 94.27 261.85 35.09 264.61 35.09 264.61 91.46 360.92 91.46 360.92 8.7 263.53 8.7 129.28 -127.55 131.24 -129.53 264.67 5.9 363.69 5.9 363.69 94.27" style="fill:#fff; stroke-width:0px;"/><polygon points="249.84 65.08 247.07 65.08 247.07 28.17 120.59 -100.2 122.55 -102.19 249.84 27.01 249.84 65.08" style="fill:#fff; stroke-width:0px;"/><polygon points="479.28 59.87 441.75 59.87 441.75 -97.15 252.23 -97.15 175.78 -174.74 177.73 -176.73 253.37 -99.95 444.51 -99.95 444.51 57.06 476.51 57.06 476.51 -42.98 479.28 -42.98 479.28 59.87" style="fill:#fff; stroke-width:0px;"/><path d="m416.49,49.53c-5.63,5.72-14.79,5.72-20.42,0-5.63-5.72-5.63-15.01,0-20.73,5.63-5.72,14.79-5.72,20.42,0,5.63,5.72,5.63,15.01,0,20.73Zm-18.47-18.74c-4.55,4.62-4.55,12.14,0,16.76,4.55,4.62,11.96,4.62,16.51,0,4.55-4.62,4.55-12.14,0-16.76-4.55-4.62-11.96-4.62-16.51,0Z" style="fill:#fff; stroke-width:0px;"/><path d="m252.15,61.33c2.04,2.07,2.04,5.43,0,7.5-2.04,2.07-5.35,2.07-7.39,0-2.04-2.07-2.04-5.43,0-7.5,2.04-2.07,5.35-2.07,7.39,0Z" style="fill:#fff; stroke-width:0px;"/><path d="m326.23,111.4c1.43,1.46,1.43,3.82,0,5.27-1.43,1.46-3.76,1.46-5.19,0-1.43-1.46-1.43-3.82,0-5.27,1.43-1.46,3.76-1.46,5.19,0Z" style="fill:#fff; stroke-width:0px;"/><ellipse cx="263.23" cy="37.31" rx="3.67" ry="3.73" style="fill:#fff; stroke-width:0px;"/><polygon points="223.18 34.94 213.4 44.87 141.36 -25.38 143.31 -30.24 213.4 40.9 219.26 34.94 122.9 -62.86 124.86 -64.84 223.18 34.94" style="fill:#fff; stroke-width:0px;"/><polygon points="528.59 398.32 590.38 385.43 590.94 388.18 531.85 400.51 562.7 552.85 703.22 523.54 846.44 600.41 962.15 600.41 962.15 602.75 844.92 602.75 702.65 526.53 560.55 556.17 528.59 398.32" style="fill:#fff; stroke-width:0px;"/><polygon points="555.34 414.35 655.1 393.55 666.84 451.52 664.13 452.08 652.95 396.86 558.61 416.54 575.02 497.6 670.43 477.7 857.26 583.74 962.15 583.74 962.15 586.08 855.74 586.08 669.86 480.69 572.87 500.92 555.34 414.35" style="fill:#fff; stroke-width:0px;"/><polygon points="672.65 419.69 675.36 419.12 682.68 455.27 860.35 555.18 962.15 555.18 962.15 557.52 858.83 557.52 680.2 456.98 672.65 419.69" style="fill:#fff; stroke-width:0px;"/><polygon points="448.94 471.67 485.7 464 516.85 617.8 702.49 579.08 821.07 639.47 962.15 639.47 962.15 641.81 819.55 641.81 701.92 582.06 514.69 621.11 483.55 467.32 452.21 473.85 472.05 571.84 469.34 572.41 448.94 471.67" style="fill:#fff; stroke-width:0px;"/><path d="m512.49,468.97c4.38-6.75,13.36-8.62,20.01-4.17,6.65,4.45,8.49,13.56,4.11,20.3-4.38,6.75-13.36,8.62-20.01,4.17-6.65-4.45-8.49-13.56-4.11-20.3Zm21.81,14.59c3.54-5.46,2.05-12.82-3.32-16.42-5.38-3.6-12.63-2.08-16.17,3.37-3.54,5.46-2.05,12.82,3.32,16.42,5.38,3.6,12.63,2.08,16.17-3.37Z" style="fill:#fff; stroke-width:0px;"/><path d="m671.13,423.83c-2.41-1.61-3.07-4.9-1.49-7.34,1.59-2.44,4.83-3.12,7.24-1.51,2.41,1.61,3.07,4.9,1.49,7.34-1.59,2.44-4.83,3.12-7.24,1.51Z" style="fill:#fff; stroke-width:0px;"/><path d="m588.64,389.92c-1.69-1.13-2.16-3.44-1.05-5.16,1.12-1.72,3.39-2.19,5.09-1.06,1.69,1.13,2.16,3.44,1.05,5.16-1.12,1.72-3.39,2.19-5.09,1.06Z" style="fill:#fff; stroke-width:0px;"/><path d="m663.02,452.73c-1.69-1.13-2.16-3.44-1.05-5.16,1.12-1.72,3.39-2.19,5.09-1.06,1.69,1.13,2.16,3.44,1.05,5.16-1.12,1.72-3.39,2.19-5.09,1.06Z" style="fill:#fff; stroke-width:0px;"/><polygon points="704.75 443.76 712.35 432.04 890.63 532.35 962.15 532.35 962.15 534.69 889.11 534.69 713.14 435.93 708.58 442.96 822.36 507.58 820.84 509.92 704.75 443.76" style="fill:#fff; stroke-width:0px;"/></g></g></svg>