<?xml version="1.0" encoding="UTF-8"?><svg id="_Слой_2" xmlns="http://www.w3.org/2000/svg" width="822.05" height="468.66" xmlns:xlink="http://www.w3.org/1999/xlink" viewBox="0 0 822.05 468.66"><defs><clipPath id="clippath"><rect x="176.69" y="-176.69" width="468.66" height="822.05" transform="translate(645.35 -176.69) rotate(90)" style="fill:none; stroke-width:0px;"/></clipPath></defs><g id="_Слой_1-2"><g style="clip-path:url(#clippath);"><polygon points="587.04 243.61 585.08 245.57 649.31 309.81 535.45 423.67 535.45 542.65 538.22 542.65 538.22 424.82 653.23 309.81 587.04 243.61" style="fill:#fff; stroke-width:0px;"/><polygon points="507.61 191.88 462.95 236.54 464.91 238.5 507.61 195.79 616.09 304.27 514.54 405.83 514.54 542.65 517.3 542.65 517.3 406.98 620.01 304.27 507.61 191.88" style="fill:#fff; stroke-width:0px;"/><polygon points="506.08 222.95 433.98 295.04 475.26 336.32 477.22 334.36 437.9 295.04 506.08 226.86 563.8 284.58 494.85 353.53 494.85 542.65 497.62 542.65 497.62 354.68 567.71 284.58 506.08 222.95" style="fill:#fff; stroke-width:0px;"/><polygon points="445.84 323.9 443.88 325.86 469.62 351.6 469.62 542.65 472.39 542.65 472.39 350.46 445.84 323.9" style="fill:#fff; stroke-width:0px;"/><polygon points="611.9 165.12 585.33 191.68 694.84 301.2 560.68 435.36 560.68 542.65 563.45 542.65 563.45 436.51 698.76 301.2 589.25 191.68 611.9 169.03 681.67 238.8 683.63 236.85 611.9 165.12" style="fill:#fff; stroke-width:0px;"/><rect x="600.05" y="449.47" width="2.77" height="93.18" style="fill:#fff; stroke-width:0px;"/><polygon points="719.87 326 624.66 421.21 624.66 542.65 627.43 542.65 627.43 422.36 719.87 329.92 738.22 348.26 653.68 432.8 655.64 434.76 742.13 348.26 719.87 326" style="fill:#fff; stroke-width:0px;"/><polygon points="726.28 395.89 668.35 453.82 668.35 542.65 671.11 542.65 671.11 454.96 728.23 397.84 726.28 395.89" style="fill:#fff; stroke-width:0px;"/><polygon points="731.81 419.88 687.42 464.28 687.42 542.65 690.19 542.65 690.19 465.42 733.77 421.84 731.81 419.88" style="fill:#fff; stroke-width:0px;"/><path d="m760.32,407.79c0,7.97-6.49,14.46-14.46,14.46s-14.46-6.49-14.46-14.46,6.49-14.46,14.46-14.46,14.46,6.49,14.46,14.46Zm-2.77,0c0-6.45-5.24-11.69-11.69-11.69s-11.69,5.24-11.69,11.69,5.24,11.69,11.69,11.69,11.69-5.24,11.69-11.69Z" style="fill:#fff; stroke-width:0px;"/><path d="m710.64,251.14c0,7.97-6.49,14.46-14.46,14.46s-14.46-6.49-14.46-14.46,6.49-14.46,14.46-14.46,14.46,6.49,14.46,14.46Zm-2.77,0c0-6.45-5.24-11.69-11.69-11.69s-11.69,5.24-11.69,11.69,5.24,11.69,11.69,11.69,11.69-5.24,11.69-11.69Z" style="fill:#fff; stroke-width:0px;"/><path d="m589.12,231.23c0,7.97-6.49,14.46-14.46,14.46s-14.46-6.49-14.46-14.46,6.49-14.46,14.46-14.46,14.46,6.49,14.46,14.46Zm-2.77,0c0-6.45-5.24-11.69-11.69-11.69s-11.69,5.24-11.69,11.69,5.24,11.69,11.69,11.69,11.69-5.24,11.69-11.69Z" style="fill:#fff; stroke-width:0px;"/><path d="m450.09,324.88c0-2.89-2.34-5.23-5.23-5.23s-5.23,2.34-5.23,5.23,2.34,5.23,5.23,5.23,5.23-2.34,5.23-5.23Z" style="fill:#fff; stroke-width:0px;"/><path d="m606.67,449.47c0-2.89-2.34-5.23-5.23-5.23s-5.23,2.34-5.23,5.23,2.34,5.23,5.23,5.23,5.23-2.34,5.23-5.23Z" style="fill:#fff; stroke-width:0px;"/><path d="m732.48,396.87c0-2.89-2.34-5.23-5.23-5.23s-5.23,2.34-5.23,5.23,2.34,5.23,5.23,5.23,5.23-2.34,5.23-5.23Z" style="fill:#fff; stroke-width:0px;"/><path d="m658.63,433.52c0-2.03-1.65-3.68-3.68-3.68s-3.68,1.65-3.68,3.68,1.65,3.68,3.68,3.68,3.68-1.65,3.68-3.68Z" style="fill:#fff; stroke-width:0px;"/><path d="m467.61,237.52c0-2.03-1.65-3.68-3.68-3.68s-3.68,1.65-3.68,3.68,1.65,3.68,3.68,3.68,3.68-1.65,3.68-3.68Z" style="fill:#fff; stroke-width:0px;"/><circle cx="474.68" cy="333.79" r="3.68" style="fill:#fff; stroke-width:0px;"/><polygon points="448.89 363.8 462.73 363.8 462.73 543.6 459.96 543.6 459.96 366.57 451.66 366.57 451.66 503 448.89 503 448.89 363.8" style="fill:#fff; stroke-width:0px;"/><polygon points="343.41 82.64 340.65 82.64 340.65 173.48 179.62 173.48 -224.18 548.28 -222.22 550.24 180.77 176.25 343.41 176.25 343.41 82.64" style="fill:#fff; stroke-width:0px;"/><polygon points="323.84 -10.11 260.68 -10.11 260.68 -7.34 321.07 -7.34 321.07 146.07 177.45 146.07 -238.97 533.49 -237.02 535.45 178.59 148.84 323.84 148.84 323.84 -10.11" style="fill:#fff; stroke-width:0px;"/><polygon points="300.78 10.77 198.82 10.77 198.82 69.15 201.59 69.15 201.59 13.54 298.01 13.54 298.01 95.17 200.5 95.17 -252.9 519.57 -250.94 521.53 201.65 97.94 300.78 97.94 300.78 10.77" style="fill:#fff; stroke-width:0px;"/><polygon points="186.8 39.57 184.03 39.57 184.03 75.97 -261.6 492.6 -259.64 494.56 186.8 77.12 186.8 39.57" style="fill:#fff; stroke-width:0px;"/><polygon points="416.5 44.71 378.93 44.71 378.93 199.58 189.19 199.58 -206.35 566.12 -204.39 568.08 190.34 202.35 381.7 202.35 381.7 47.48 413.73 47.48 413.73 146.15 416.5 146.15 416.5 44.71" style="fill:#fff; stroke-width:0px;"/><polygon points="209.02 239.36 207.06 237.4 -173.72 589.18 -171.76 591.14 209.02 239.36" style="fill:#fff; stroke-width:0px;"/><polygon points="379.09 234.82 244.44 234.82 -161.1 611.37 -159.14 613.32 245.59 237.59 376.32 237.59 376.32 263.53 256.76 263.53 256.76 266.3 379.09 266.3 379.09 234.82" style="fill:#fff; stroke-width:0px;"/><polygon points="334.2 288.77 252.27 288.77 191.83 349.21 193.79 351.17 253.42 291.54 334.2 291.54 334.2 288.77" style="fill:#fff; stroke-width:0px;"/><polygon points="321.15 309.65 258.36 309.65 211.41 356.6 213.37 358.56 259.51 312.42 321.15 312.42 321.15 309.65" style="fill:#fff; stroke-width:0px;"/><path d="m349.86,321.26c-5.64,5.64-14.81,5.64-20.45,0-5.64-5.64-5.64-14.81,0-20.45,5.64-5.64,14.81-5.64,20.45,0,5.64,5.64,5.64,14.81,0,20.45Zm-1.96-1.96c4.56-4.56,4.56-11.97,0-16.53s-11.97-4.56-16.53,0c-4.56,4.56-4.56,11.97,0,16.53,4.56,4.56,11.97,4.56,16.53,0Z" style="fill:#fff; stroke-width:0px;"/><path d="m425.5,175.36c-5.64,5.64-14.81,5.64-20.45,0-5.64-5.64-5.64-14.81,0-20.45,5.64-5.64,14.81-5.64,20.45,0,5.64,5.64,5.64,14.81,0,20.45Zm-1.96-1.96c4.56-4.56,4.56-11.97,0-16.53s-11.97-4.56-16.53,0-4.56,11.97,0,16.53,11.97,4.56,16.53,0Z" style="fill:#fff; stroke-width:0px;"/><path d="m353.64,75.35c-5.64,5.64-14.81,5.64-20.45,0-5.64-5.64-5.64-14.81,0-20.45,5.64-5.64,14.81-5.64,20.45,0,5.64,5.64,5.64,14.81,0,20.45Zm-1.96-1.96c4.56-4.56,4.56-11.97,0-16.53-4.56-4.56-11.97-4.56-16.53,0-4.56,4.56-4.56,11.97,0,16.53s11.97,4.56,16.53,0Z" style="fill:#fff; stroke-width:0px;"/><path d="m189.11,43.26c2.04-2.04,2.04-5.35,0-7.4-2.04-2.04-5.35-2.04-7.4,0-2.04,2.04-2.04,5.35,0,7.4,2.04,2.04,5.35,2.04,7.4,0Z" style="fill:#fff; stroke-width:0px;"/><path d="m211.74,242.08c2.04-2.04,2.04-5.35,0-7.4-2.04-2.04-5.35-2.04-7.4,0-2.04,2.04-2.04,5.35,0,7.4,2.04,2.04,5.35,2.04,7.4,0Z" style="fill:#fff; stroke-width:0px;"/><circle cx="334.2" cy="290.15" r="5.23" style="fill:#fff; stroke-width:0px;"/><path d="m259.76,267.54c1.44-1.44,1.44-3.76,0-5.2-1.44-1.44-3.76-1.44-5.2,0-1.44,1.44-1.44,3.76,0,5.2,1.44,1.44,3.76,1.44,5.2,0Z" style="fill:#fff; stroke-width:0px;"/><path d="m202.81,69.55c1.44-1.44,1.44-3.76,0-5.2-1.44-1.44-3.76-1.44-5.2,0-1.44,1.44-1.44,3.76,0,5.2s3.76,1.44,5.2,0Z" style="fill:#fff; stroke-width:0px;"/><polygon points="160.11 69.29 150.32 59.5 -295.82 476.64 -293.86 478.6 150.32 63.42 156.19 69.29 1.72 223.76 3.68 225.72 160.11 69.29" style="fill:#fff; stroke-width:0px;"/><path d="m5.73,226.91c1.44-1.44,1.44-3.76,0-5.2-1.44-1.44-3.76-1.44-5.2,0-1.44,1.44-1.44,3.76,0,5.2,1.44,1.44,3.76,1.44,5.2,0Z" style="fill:#fff; stroke-width:0px;"/><polygon points="286.67 419.94 284.71 421.9 348.95 486.13 235.09 599.99 235.09 719.92 237.85 719.92 237.85 601.14 352.86 486.13 286.67 419.94" style="fill:#fff; stroke-width:0px;"/><polygon points="207.25 368.2 162.58 412.86 164.54 414.82 207.25 372.12 315.72 480.59 214.17 582.15 214.17 719.92 216.94 719.92 216.94 583.3 319.64 480.59 207.25 368.2" style="fill:#fff; stroke-width:0px;"/><polygon points="205.71 399.27 133.61 471.37 174.89 512.64 176.85 510.69 137.53 471.37 205.71 403.19 263.43 460.91 194.48 529.86 194.48 719.92 197.25 719.92 197.25 531 267.34 460.91 205.71 399.27" style="fill:#fff; stroke-width:0px;"/><polygon points="311.53 341.44 284.96 368.01 394.48 477.52 260.31 611.68 260.31 719.92 263.08 719.92 263.08 612.83 398.39 477.52 288.88 368.01 311.53 345.35 381.3 415.13 383.26 413.17 311.53 341.44" style="fill:#fff; stroke-width:0px;"/><path d="m410.28,427.46c0,7.97-6.49,14.46-14.46,14.46s-14.46-6.49-14.46-14.46,6.49-14.46,14.46-14.46,14.46,6.49,14.46,14.46Zm-2.77,0c0-6.45-5.24-11.69-11.69-11.69s-11.69,5.24-11.69,11.69,5.24,11.69,11.69,11.69,11.69-5.24,11.69-11.69Z" style="fill:#fff; stroke-width:0px;"/><path d="m288.75,407.55c0,7.97-6.49,14.46-14.46,14.46s-14.46-6.49-14.46-14.46,6.49-14.46,14.46-14.46,14.46,6.49,14.46,14.46Zm-2.77,0c0-6.45-5.24-11.69-11.69-11.69s-11.69,5.24-11.69,11.69,5.24,11.69,11.69,11.69,11.69-5.24,11.69-11.69Z" style="fill:#fff; stroke-width:0px;"/><path d="m167.24,413.84c0-2.03-1.65-3.68-3.68-3.68s-3.68,1.65-3.68,3.68,1.65,3.68,3.68,3.68,3.68-1.65,3.68-3.68Z" style="fill:#fff; stroke-width:0px;"/></g></g></svg>