<?xml version="1.0" encoding="UTF-8"?><svg id="_Слой_2" xmlns="http://www.w3.org/2000/svg" width="822.05" height="467.72" xmlns:xlink="http://www.w3.org/1999/xlink" viewBox="0 0 822.05 467.72"><defs><clipPath id="clippath"><rect x="177.17" y="-177.17" width="467.72" height="822.05" transform="translate(644.88 -177.17) rotate(90)" style="fill:none; stroke-width:0px;"/></clipPath></defs><g id="_Слой_1-2"><g style="clip-path:url(#clippath);"><polygon points="815.47 296.59 770.77 251.05 772.73 249.06 815.47 292.6 924.05 181.99 822.4 78.43 822.4 -89.11 825.17 -89.11 825.17 77.26 927.97 181.99 815.47 296.59" style="fill:#fff; stroke-width:0px;"/><polygon points="813.93 264.91 741.78 191.4 783.09 149.31 785.05 151.31 745.69 191.4 813.93 260.92 871.71 202.06 802.7 131.76 802.7 -89.11 805.47 -89.11 805.47 130.59 875.63 202.06 813.93 264.91" style="fill:#fff; stroke-width:0px;"/><polygon points="753.64 161.97 751.68 159.97 777.45 133.73 777.45 -89.11 780.22 -89.11 780.22 134.89 753.64 161.97" style="fill:#fff; stroke-width:0px;"/><path d="m757.9,160.97c0,2.95-2.34,5.33-5.23,5.33s-5.23-2.39-5.23-5.33,2.34-5.33,5.23-5.33,5.23,2.39,5.23,5.33Z" style="fill:#fff; stroke-width:0px;"/><path d="m775.43,250.06c0,2.07-1.65,3.75-3.68,3.75s-3.68-1.68-3.68-3.75,1.65-3.75,3.68-3.75,3.68,1.68,3.68,3.75Z" style="fill:#fff; stroke-width:0px;"/><ellipse cx="782.52" cy="151.89" rx="3.68" ry="3.75" style="fill:#fff; stroke-width:0px;"/><polygon points="755.79 121.29 741.93 121.29 741.93 -89.11 744.71 -89.11 744.71 118.47 753.02 118.47 753.02 -79.79 755.79 -79.79 755.79 121.29" style="fill:#fff; stroke-width:0px;"/><polygon points="630.72 119.6 627.94 119.6 627.94 26.97 466.78 26.97 381.9 -59.51 381.93 -112.38 383.86 -112.38 383.86 -61.5 467.92 24.14 630.72 24.14 630.72 119.6" style="fill:#fff; stroke-width:0px;"/><polygon points="611.12 214.17 547.9 214.17 547.9 211.34 608.35 211.34 608.35 54.91 464.6 54.91 367.09 -44.42 367.09 -112.38 369.05 -112.38 369.05 -46.42 465.75 52.09 611.12 52.09 611.12 214.17" style="fill:#fff; stroke-width:0px;"/><polygon points="588.04 192.87 485.99 192.87 485.99 133.35 488.77 133.35 488.77 190.05 585.27 190.05 585.27 106.81 487.68 106.81 353.16 -30.23 353.16 -112.38 355.12 -112.38 355.12 -32.23 488.83 103.99 588.04 103.99 588.04 192.87" style="fill:#fff; stroke-width:0px;"/><polygon points="473.96 163.51 471.19 163.51 471.19 126.39 344.45 -2.73 344.45 -112.38 346.41 -112.38 346.41 -4.72 473.96 125.22 473.96 163.51" style="fill:#fff; stroke-width:0px;"/><polygon points="703.87 158.27 666.26 158.27 666.26 .35 476.36 .35 371.38 -106.6 373.34 -108.6 477.5 -2.47 669.03 -2.47 669.03 155.45 701.1 155.45 701.1 54.83 703.87 54.83 703.87 158.27" style="fill:#fff; stroke-width:0px;"/><path d="m712.87,45.9c-5.64,5.75-14.82,5.75-20.47,0-5.64-5.75-5.64-15.1,0-20.85,5.64-5.75,14.82-5.75,20.47,0,5.64,5.75,5.64,15.1,0,20.85Zm-18.51-18.85c-4.56,4.65-4.56,12.21,0,16.86s11.98,4.65,16.55,0c4.56-4.65,4.56-12.21,0-16.86-4.56-4.65-11.98-4.65-16.55,0Z" style="fill:#fff; stroke-width:0px;"/><path d="m640.95,147.87c-5.64,5.75-14.82,5.75-20.46,0-5.64-5.75-5.64-15.1,0-20.85,5.64-5.75,14.82-5.75,20.46,0s5.64,15.1,0,20.85Zm-18.51-18.85c-4.56,4.65-4.56,12.21,0,16.86,4.56,4.65,11.98,4.65,16.55,0,4.56-4.65,4.56-12.21,0-16.86-4.56-4.65-11.98-4.65-16.55,0Z" style="fill:#fff; stroke-width:0px;"/><ellipse cx="472.58" cy="163.51" rx="5.23" ry="5.33" style="fill:#fff; stroke-width:0px;"/><path d="m550.51,210.1c1.44,1.46,1.44,3.84,0,5.3-1.44,1.46-3.77,1.46-5.2,0-1.44-1.46-1.44-3.84,0-5.3,1.44-1.46,3.77-1.46,5.2,0Z" style="fill:#fff; stroke-width:0px;"/><ellipse cx="487.38" cy="135.59" rx="3.68" ry="3.75" style="fill:#fff; stroke-width:0px;"/><polygon points="447.25 133.21 437.45 143.19 310.19 13.54 310.19 -112.38 312.15 -112.38 312.15 11.55 437.45 139.19 443.33 133.21 346.77 34.84 348.73 32.84 447.25 133.21" style="fill:#fff; stroke-width:0px;"/><path d="m350.79,31.63c1.44,1.46,1.44,3.84,0,5.3-1.44,1.46-3.77,1.46-5.2,0-1.44-1.46-1.44-3.84,0-5.3,1.44-1.46,3.77-1.46,5.2,0Z" style="fill:#fff; stroke-width:0px;"/><polygon points="359.73 356.24 356.96 356.26 356.35 263.63 195.19 264.73 109.74 178.83 -136.42 178.83 -136.42 176.82 111.69 176.82 196.32 261.9 359.1 260.79 359.73 356.24" style="fill:#fff; stroke-width:0px;"/><polygon points="340.75 450.94 277.54 451.37 277.52 448.55 337.96 448.14 336.94 291.71 193.19 292.69 95.04 194.02 -136.42 194.02 -136.42 192.01 96.98 192.01 194.32 289.86 339.69 288.87 340.75 450.94" style="fill:#fff; stroke-width:0px;"/><polygon points="317.54 429.81 215.49 430.5 215.1 370.98 217.87 370.96 218.24 427.66 314.75 427 314.2 343.77 216.61 344.43 81.2 208.31 -136.42 208.31 -136.42 206.3 83.14 206.3 217.74 341.6 316.95 340.93 317.54 429.81" style="fill:#fff; stroke-width:0px;"/><polygon points="203.26 401.22 200.49 401.24 200.25 364.12 72.67 235.87 -136.42 235.87 -136.42 233.86 74.62 233.86 203.01 362.93 203.26 401.22" style="fill:#fff; stroke-width:0px;"/><polygon points="433.13 394.42 395.53 394.68 394.49 236.76 204.59 238.05 127.48 160.52 -136.42 160.52 -136.42 158.52 129.42 158.52 205.72 235.22 397.24 233.91 398.28 391.83 430.34 391.62 429.68 291 432.45 290.98 433.13 394.42" style="fill:#fff; stroke-width:0px;"/><polygon points="224.17 197.35 222.22 199.36 194.92 171.55 214.19 151.92 224.04 162.64 222.09 164.65 213.6 155.99 199.14 170.72 224.17 197.35" style="fill:#fff; stroke-width:0px;"/><polygon points="394.42 200.82 259.65 201.74 222.09 164.65 224.04 162.64 260.78 198.91 391.63 198.02 391.45 171.57 271.79 172.38 271.77 169.56 394.21 168.72 394.42 200.82" style="fill:#fff; stroke-width:0px;"/><path d="m441.4,281.99c-5.6,5.79-14.79,5.85-20.46.14-5.68-5.71-5.74-15.06-.14-20.85s14.79-5.85,20.46-.14c5.68,5.71,5.74,15.06.14,20.85Zm-18.63-18.73c-4.53,4.68-4.48,12.24.11,16.86,4.59,4.62,12.01,4.57,16.55-.11,4.53-4.68,4.48-12.24-.11-16.86-4.59-4.62-12.01-4.57-16.55.11Z" style="fill:#fff; stroke-width:0px;"/><path d="m370.15,384.45c-5.6,5.79-14.78,5.85-20.46.14-5.68-5.71-5.74-15.06-.14-20.85,5.6-5.79,14.78-5.85,20.46-.14s5.74,15.06.14,20.85Zm-18.63-18.73c-4.53,4.68-4.48,12.24.11,16.86,4.59,4.62,12.01,4.57,16.55-.11,4.53-4.68,4.48-12.24-.11-16.86-4.59-4.62-12.01-4.57-16.55.11Z" style="fill:#fff; stroke-width:0px;"/><path d="m205.55,397.44c2.06,2.07,2.08,5.44.05,7.54s-5.34,2.12-7.4.05c-2.06-2.07-2.08-5.44-.05-7.54,2.03-2.1,5.34-2.12,7.4-.05Z" style="fill:#fff; stroke-width:0px;"/><path d="m226.87,194.56c2.06,2.07,2.08,5.44.05,7.54-2.03,2.1-5.34,2.12-7.4.05-2.06-2.07-2.08-5.44-.05-7.54s5.34-2.12,7.4-.05Z" style="fill:#fff; stroke-width:0px;"/><path d="m274.76,168.28c1.45,1.45,1.46,3.83.03,5.3s-3.76,1.49-5.2.04-1.46-3.83-.03-5.3c1.43-1.47,3.76-1.49,5.2-.04Z" style="fill:#fff; stroke-width:0px;"/><path d="m280.11,447.29c1.45,1.45,1.46,3.83.03,5.3s-3.76,1.49-5.2.04c-1.45-1.45-1.46-3.83-.03-5.3s3.76-1.49,5.2-.04Z" style="fill:#fff; stroke-width:0px;"/><path d="m219.08,370.54c1.45,1.45,1.46,3.83.03,5.3-1.43,1.47-3.76,1.49-5.2.04s-1.46-3.83-.03-5.3c1.43-1.47,3.76-1.49,5.2-.04Z" style="fill:#fff; stroke-width:0px;"/><polygon points="176.35 371.1 166.62 381.14 38.52 252.37 -136.42 252.37 -136.42 250.36 40.47 250.36 166.59 377.15 172.43 371.12 75.23 273.41 77.18 271.4 176.35 371.1" style="fill:#fff; stroke-width:0px;"/><path d="m79.23,270.18c1.45,1.45,1.46,3.83.03,5.3s-3.76,1.49-5.2.04c-1.45-1.45-1.46-3.83-.03-5.3,1.43-1.47,3.76-1.49,5.2-.04Z" style="fill:#fff; stroke-width:0px;"/><polygon points="211.6 71.51 208.83 71.53 208.22 -21.1 47.06 -20 -38.39 -105.9 -36.44 -107.91 48.19 -22.83 210.97 -23.94 211.6 71.51" style="fill:#fff; stroke-width:0px;"/><polygon points="192.62 166.21 157.78 166.64 157.76 163.82 189.83 163.41 188.81 6.98 45.06 7.96 -81.46 -119.62 -79.52 -121.63 46.19 5.13 191.56 4.14 192.62 166.21" style="fill:#fff; stroke-width:0px;"/><polygon points="169.41 145.08 67.36 145.77 66.97 86.25 69.74 86.23 70.11 142.93 166.62 142.27 166.07 59.04 68.48 59.7 -95.3 -105.33 -93.36 -107.34 69.61 56.87 168.82 56.2 169.41 145.08" style="fill:#fff; stroke-width:0px;"/><polygon points="55.13 116.49 52.36 116.51 52.12 79.39 -132.2 -106.67 -130.26 -108.68 54.88 78.2 55.13 116.49" style="fill:#fff; stroke-width:0px;"/><polygon points="285 109.69 247.4 109.95 246.36 -47.97 56.46 -46.68 -20.65 -124.21 -18.71 -126.22 57.59 -49.51 249.12 -50.82 250.15 107.1 282.21 106.89 281.55 6.27 284.32 6.25 285 109.69" style="fill:#fff; stroke-width:0px;"/><path d="m293.27-2.74c-5.6,5.79-14.79,5.85-20.46.14-5.68-5.71-5.74-15.06-.14-20.85,5.6-5.79,14.79-5.85,20.46-.14,5.68,5.71,5.74,15.06.14,20.85Zm-18.63-18.73c-4.53,4.68-4.48,12.24.11,16.86,4.59,4.62,12.01,4.57,16.55-.11,4.53-4.68,4.48-12.24-.11-16.86-4.59-4.62-12.01-4.57-16.55.11Z" style="fill:#fff; stroke-width:0px;"/><path d="m222.02,99.72c-5.6,5.79-14.78,5.85-20.46.14-5.68-5.71-5.74-15.06-.14-20.85,5.6-5.79,14.78-5.85,20.46-.14,5.68,5.71,5.74,15.06.14,20.85Zm-18.63-18.73c-4.53,4.68-4.48,12.24.11,16.86,4.59,4.62,12.01,4.57,16.55-.11,4.53-4.68,4.48-12.24-.11-16.86-4.59-4.62-12.01-4.57-16.55.11Z" style="fill:#fff; stroke-width:0px;"/><path d="m57.43,112.71c2.06,2.07,2.08,5.44.05,7.54-2.03,2.1-5.34,2.12-7.4.05-2.06-2.07-2.08-5.44-.05-7.54,2.03-2.1,5.34-2.12,7.4-.05Z" style="fill:#fff; stroke-width:0px;"/><path d="m160.36,162.56c1.45,1.45,1.46,3.83.03,5.3-1.43,1.47-3.76,1.49-5.2.04-1.45-1.45-1.46-3.83-.03-5.3,1.43-1.47,3.76-1.49,5.2-.04Z" style="fill:#fff; stroke-width:0px;"/><path d="m70.96,85.81c1.45,1.45,1.46,3.83.03,5.3-1.43,1.47-3.76,1.49-5.2.04-1.45-1.45-1.46-3.83-.03-5.3,1.43-1.47,3.76-1.49,5.2-.04Z" style="fill:#fff; stroke-width:0px;"/><polygon points="28.22 86.37 18.49 96.41 -137.98 -61.27 -136.04 -63.28 18.46 92.42 24.3 86.39 -72.9 -11.32 -70.95 -13.33 28.22 86.37" style="fill:#fff; stroke-width:0px;"/></g></g></svg>