<?xml version="1.0" encoding="UTF-8"?><svg id="_Слой_2" xmlns="http://www.w3.org/2000/svg" width="1690.05" height="468.66" xmlns:xlink="http://www.w3.org/1999/xlink" viewBox="0 0 1690.05 468.66"><defs><clipPath id="clippath"><rect x="610.69" y="-610.69" width="468.66" height="1690.05" transform="translate(1079.35 -610.69) rotate(90)" style="fill:none; stroke-width:0px;"/></clipPath></defs><g id="_Слой_1-2"><g style="clip-path:url(#clippath);"><polygon points="587.04 243.61 585.08 245.57 649.31 309.81 535.45 423.67 535.45 542.65 538.22 542.65 538.22 424.82 653.23 309.81 587.04 243.61" style="fill:#fff; stroke-width:0px;"/><polygon points="507.61 191.88 462.95 236.54 464.91 238.5 507.61 195.79 616.09 304.27 514.54 405.83 514.54 542.65 517.3 542.65 517.3 406.98 620.01 304.27 507.61 191.88" style="fill:#fff; stroke-width:0px;"/><polygon points="506.08 222.95 433.98 295.04 475.26 336.32 477.22 334.36 437.9 295.04 506.08 226.86 563.8 284.58 494.85 353.53 494.85 542.65 497.62 542.65 497.62 354.68 567.71 284.58 506.08 222.95" style="fill:#fff; stroke-width:0px;"/><polygon points="445.84 323.9 443.88 325.86 469.62 351.6 469.62 542.65 472.39 542.65 472.39 350.46 445.84 323.9" style="fill:#fff; stroke-width:0px;"/><polygon points="611.9 165.12 585.33 191.68 694.84 301.2 560.68 435.36 560.68 542.65 563.45 542.65 563.45 436.51 698.76 301.2 589.25 191.68 611.9 169.03 681.67 238.8 683.63 236.85 611.9 165.12" style="fill:#fff; stroke-width:0px;"/><rect x="600.05" y="449.47" width="2.77" height="93.18" style="fill:#fff; stroke-width:0px;"/><polygon points="719.87 326 624.66 421.21 624.66 542.65 627.43 542.65 627.43 422.36 719.87 329.92 738.22 348.26 653.68 432.8 655.64 434.76 742.13 348.26 719.87 326" style="fill:#fff; stroke-width:0px;"/><polygon points="726.28 395.89 668.35 453.82 668.35 542.65 671.11 542.65 671.11 454.96 728.23 397.84 726.28 395.89" style="fill:#fff; stroke-width:0px;"/><polygon points="731.81 419.88 687.42 464.28 687.42 542.65 690.19 542.65 690.19 465.42 733.77 421.84 731.81 419.88" style="fill:#fff; stroke-width:0px;"/><path d="m760.32,407.79c0,7.97-6.49,14.46-14.46,14.46s-14.46-6.49-14.46-14.46,6.49-14.46,14.46-14.46,14.46,6.49,14.46,14.46Zm-2.77,0c0-6.45-5.24-11.69-11.69-11.69s-11.69,5.24-11.69,11.69,5.24,11.69,11.69,11.69,11.69-5.24,11.69-11.69Z" style="fill:#fff; stroke-width:0px;"/><path d="m710.64,251.14c0,7.97-6.49,14.46-14.46,14.46s-14.46-6.49-14.46-14.46,6.49-14.46,14.46-14.46,14.46,6.49,14.46,14.46Zm-2.77,0c0-6.45-5.24-11.69-11.69-11.69s-11.69,5.24-11.69,11.69,5.24,11.69,11.69,11.69,11.69-5.24,11.69-11.69Z" style="fill:#fff; stroke-width:0px;"/><path d="m589.12,231.23c0,7.97-6.49,14.46-14.46,14.46s-14.46-6.49-14.46-14.46,6.49-14.46,14.46-14.46,14.46,6.49,14.46,14.46Zm-2.77,0c0-6.45-5.24-11.69-11.69-11.69s-11.69,5.24-11.69,11.69,5.24,11.69,11.69,11.69,11.69-5.24,11.69-11.69Z" style="fill:#fff; stroke-width:0px;"/><path d="m450.09,324.88c0-2.89-2.34-5.23-5.23-5.23s-5.23,2.34-5.23,5.23,2.34,5.23,5.23,5.23,5.23-2.34,5.23-5.23Z" style="fill:#fff; stroke-width:0px;"/><path d="m606.67,449.47c0-2.89-2.34-5.23-5.23-5.23s-5.23,2.34-5.23,5.23,2.34,5.23,5.23,5.23,5.23-2.34,5.23-5.23Z" style="fill:#fff; stroke-width:0px;"/><path d="m732.48,396.87c0-2.89-2.34-5.23-5.23-5.23s-5.23,2.34-5.23,5.23,2.34,5.23,5.23,5.23,5.23-2.34,5.23-5.23Z" style="fill:#fff; stroke-width:0px;"/><path d="m658.63,433.52c0-2.03-1.65-3.68-3.68-3.68s-3.68,1.65-3.68,3.68,1.65,3.68,3.68,3.68,3.68-1.65,3.68-3.68Z" style="fill:#fff; stroke-width:0px;"/><path d="m467.61,237.52c0-2.03-1.65-3.68-3.68-3.68s-3.68,1.65-3.68,3.68,1.65,3.68,3.68,3.68,3.68-1.65,3.68-3.68Z" style="fill:#fff; stroke-width:0px;"/><circle cx="474.68" cy="333.79" r="3.68" style="fill:#fff; stroke-width:0px;"/><polygon points="448.89 363.8 462.73 363.8 462.73 543.6 459.96 543.6 459.96 366.57 451.66 366.57 451.66 503 448.89 503 448.89 363.8" style="fill:#fff; stroke-width:0px;"/><polygon points="343.41 82.64 340.65 82.64 340.65 173.48 179.62 173.48 -224.18 548.28 -222.22 550.24 180.77 176.25 343.41 176.25 343.41 82.64" style="fill:#fff; stroke-width:0px;"/><polygon points="323.84 -10.11 260.68 -10.11 260.68 -7.34 321.07 -7.34 321.07 146.07 177.45 146.07 -238.97 533.49 -237.02 535.45 178.59 148.84 323.84 148.84 323.84 -10.11" style="fill:#fff; stroke-width:0px;"/><polygon points="300.78 10.77 198.82 10.77 198.82 69.15 201.59 69.15 201.59 13.54 298.01 13.54 298.01 95.17 200.5 95.17 -252.9 519.57 -250.94 521.53 201.65 97.94 300.78 97.94 300.78 10.77" style="fill:#fff; stroke-width:0px;"/><polygon points="186.8 39.57 184.03 39.57 184.03 75.97 -261.6 492.6 -259.64 494.56 186.8 77.12 186.8 39.57" style="fill:#fff; stroke-width:0px;"/><polygon points="416.5 44.71 378.93 44.71 378.93 199.58 189.19 199.58 -206.35 566.12 -204.39 568.08 190.34 202.35 381.7 202.35 381.7 47.48 413.73 47.48 413.73 146.15 416.5 146.15 416.5 44.71" style="fill:#fff; stroke-width:0px;"/><polygon points="209.02 239.36 207.06 237.4 -173.72 589.18 -171.76 591.14 209.02 239.36" style="fill:#fff; stroke-width:0px;"/><polygon points="379.09 234.82 244.44 234.82 -161.1 611.37 -159.14 613.32 245.59 237.59 376.32 237.59 376.32 263.53 256.76 263.53 256.76 266.3 379.09 266.3 379.09 234.82" style="fill:#fff; stroke-width:0px;"/><polygon points="334.2 288.77 252.27 288.77 191.83 349.21 193.79 351.17 253.42 291.54 334.2 291.54 334.2 288.77" style="fill:#fff; stroke-width:0px;"/><polygon points="321.15 309.65 258.36 309.65 211.41 356.6 213.37 358.56 259.51 312.42 321.15 312.42 321.15 309.65" style="fill:#fff; stroke-width:0px;"/><path d="m349.86,321.26c-5.64,5.64-14.81,5.64-20.45,0-5.64-5.64-5.64-14.81,0-20.45,5.64-5.64,14.81-5.64,20.45,0,5.64,5.64,5.64,14.81,0,20.45Zm-1.96-1.96c4.56-4.56,4.56-11.97,0-16.53s-11.97-4.56-16.53,0c-4.56,4.56-4.56,11.97,0,16.53,4.56,4.56,11.97,4.56,16.53,0Z" style="fill:#fff; stroke-width:0px;"/><path d="m425.5,175.36c-5.64,5.64-14.81,5.64-20.45,0-5.64-5.64-5.64-14.81,0-20.45,5.64-5.64,14.81-5.64,20.45,0,5.64,5.64,5.64,14.81,0,20.45Zm-1.96-1.96c4.56-4.56,4.56-11.97,0-16.53s-11.97-4.56-16.53,0-4.56,11.97,0,16.53,11.97,4.56,16.53,0Z" style="fill:#fff; stroke-width:0px;"/><path d="m353.64,75.35c-5.64,5.64-14.81,5.64-20.45,0-5.64-5.64-5.64-14.81,0-20.45,5.64-5.64,14.81-5.64,20.45,0,5.64,5.64,5.64,14.81,0,20.45Zm-1.96-1.96c4.56-4.56,4.56-11.97,0-16.53-4.56-4.56-11.97-4.56-16.53,0-4.56,4.56-4.56,11.97,0,16.53s11.97,4.56,16.53,0Z" style="fill:#fff; stroke-width:0px;"/><path d="m189.11,43.26c2.04-2.04,2.04-5.35,0-7.4-2.04-2.04-5.35-2.04-7.4,0-2.04,2.04-2.04,5.35,0,7.4,2.04,2.04,5.35,2.04,7.4,0Z" style="fill:#fff; stroke-width:0px;"/><path d="m211.74,242.08c2.04-2.04,2.04-5.35,0-7.4-2.04-2.04-5.35-2.04-7.4,0-2.04,2.04-2.04,5.35,0,7.4,2.04,2.04,5.35,2.04,7.4,0Z" style="fill:#fff; stroke-width:0px;"/><circle cx="334.2" cy="290.15" r="5.23" style="fill:#fff; stroke-width:0px;"/><path d="m259.76,267.54c1.44-1.44,1.44-3.76,0-5.2-1.44-1.44-3.76-1.44-5.2,0-1.44,1.44-1.44,3.76,0,5.2,1.44,1.44,3.76,1.44,5.2,0Z" style="fill:#fff; stroke-width:0px;"/><path d="m202.81,69.55c1.44-1.44,1.44-3.76,0-5.2-1.44-1.44-3.76-1.44-5.2,0-1.44,1.44-1.44,3.76,0,5.2s3.76,1.44,5.2,0Z" style="fill:#fff; stroke-width:0px;"/><polygon points="160.11 69.29 150.32 59.5 -295.82 476.64 -293.86 478.6 150.32 63.42 156.19 69.29 1.72 223.76 3.68 225.72 160.11 69.29" style="fill:#fff; stroke-width:0px;"/><path d="m5.73,226.91c1.44-1.44,1.44-3.76,0-5.2-1.44-1.44-3.76-1.44-5.2,0-1.44,1.44-1.44,3.76,0,5.2,1.44,1.44,3.76,1.44,5.2,0Z" style="fill:#fff; stroke-width:0px;"/><polygon points="286.67 419.94 284.71 421.9 348.95 486.13 235.09 599.99 235.09 719.92 237.85 719.92 237.85 601.14 352.86 486.13 286.67 419.94" style="fill:#fff; stroke-width:0px;"/><polygon points="207.25 368.2 162.58 412.86 164.54 414.82 207.25 372.12 315.72 480.59 214.17 582.15 214.17 719.92 216.94 719.92 216.94 583.3 319.64 480.59 207.25 368.2" style="fill:#fff; stroke-width:0px;"/><polygon points="205.71 399.27 133.61 471.37 174.89 512.64 176.85 510.69 137.53 471.37 205.71 403.19 263.43 460.91 194.48 529.86 194.48 719.92 197.25 719.92 197.25 531 267.34 460.91 205.71 399.27" style="fill:#fff; stroke-width:0px;"/><polygon points="311.53 341.44 284.96 368.01 394.48 477.52 260.31 611.68 260.31 719.92 263.08 719.92 263.08 612.83 398.39 477.52 288.88 368.01 311.53 345.35 381.3 415.13 383.26 413.17 311.53 341.44" style="fill:#fff; stroke-width:0px;"/><path d="m410.28,427.46c0,7.97-6.49,14.46-14.46,14.46s-14.46-6.49-14.46-14.46,6.49-14.46,14.46-14.46,14.46,6.49,14.46,14.46Zm-2.77,0c0-6.45-5.24-11.69-11.69-11.69s-11.69,5.24-11.69,11.69,5.24,11.69,11.69,11.69,11.69-5.24,11.69-11.69Z" style="fill:#fff; stroke-width:0px;"/><path d="m288.75,407.55c0,7.97-6.49,14.46-14.46,14.46s-14.46-6.49-14.46-14.46,6.49-14.46,14.46-14.46,14.46,6.49,14.46,14.46Zm-2.77,0c0-6.45-5.24-11.69-11.69-11.69s-11.69,5.24-11.69,11.69,5.24,11.69,11.69,11.69,11.69-5.24,11.69-11.69Z" style="fill:#fff; stroke-width:0px;"/><path d="m167.24,413.84c0-2.03-1.65-3.68-3.68-3.68s-3.68,1.65-3.68,3.68,1.65,3.68,3.68,3.68,3.68-1.65,3.68-3.68Z" style="fill:#fff; stroke-width:0px;"/><polygon points="1331.28 269.23 1331.87 271.94 1243.12 291.29 1277.43 448.62 1184.29 577.89 1181.96 576.4 1274.48 448.09 1239.82 289.18 1331.28 269.23" style="fill:#fff; stroke-width:0px;"/><polygon points="1426.07 268.6 1439.53 330.31 1436.82 330.9 1423.95 271.89 1274.07 304.58 1304.67 444.91 1230.24 560.85 1227.91 559.35 1301.72 444.38 1270.77 302.47 1426.07 268.6" style="fill:#fff; stroke-width:0px;"/><polygon points="1410.58 295.58 1432.3 395.19 1375.27 407.63 1374.68 404.93 1429.01 393.08 1408.46 298.87 1328.71 316.26 1349.49 411.53 1246.81 571.48 1244.48 569.99 1346.54 411 1325.41 314.15 1410.58 295.58" style="fill:#fff; stroke-width:0px;"/><polygon points="1406.73 413.07 1407.32 415.78 1371.76 423.54 1275.02 574.24 1272.69 572.74 1370.04 421.08 1406.73 413.07" style="fill:#fff; stroke-width:0px;"/><polygon points="1352.77 189.74 1360.77 226.45 1209.46 259.45 1249.88 444.83 1163.06 564.27 1160.73 562.77 1246.93 444.3 1206.16 257.34 1357.48 224.34 1350.65 193.04 1254.24 214.06 1253.65 211.36 1352.77 189.74" style="fill:#fff; stroke-width:0px;"/><polygon points="1206.8 433.94 1209.13 435.43 1105.24 565.65 1102.91 564.15 1206.8 433.94" style="fill:#fff; stroke-width:0px;"/><polygon points="1174.99 266.8 1203.68 398.36 1080.87 558.05 1078.54 556.55 1200.73 397.83 1172.88 270.1 1147.53 275.63 1173 392.44 1170.3 393.03 1144.23 273.51 1174.99 266.8" style="fill:#fff; stroke-width:0px;"/><polygon points="1131.85 322.16 1149.31 402.2 1018.09 559.17 1015.76 557.68 1146.36 401.67 1129.15 322.74 1131.85 322.16" style="fill:#fff; stroke-width:0px;"/><polygon points="1114.23 339.36 1127.61 400.7 1006.69 541.62 1004.36 540.12 1124.66 400.17 1111.52 339.95 1114.23 339.36" style="fill:#fff; stroke-width:0px;"/><path d="m1116.75,309.42c6.71,4.31,8.66,13.27,4.36,19.98-4.31,6.71-13.27,8.66-19.98,4.36-6.71-4.31-8.66-13.27-4.36-19.98,4.31-6.71,13.27-8.66,19.98-4.36Zm-14.13,22c5.42,3.48,12.67,1.9,16.15-3.52,3.48-5.42,1.9-12.67-3.52-16.15-5.42-3.48-12.67-1.9-16.15,3.52-3.48,5.42-1.9,12.67,3.52,16.15Z" style="fill:#fff; stroke-width:0px;"/><path d="m1243.18,204.44c6.71,4.31,8.66,13.27,4.36,19.98-4.31,6.71-13.27,8.66-19.98,4.36-6.71-4.31-8.66-13.27-4.36-19.98,4.31-6.71,13.27-8.66,19.98-4.36Zm-14.13,22c5.42,3.48,12.67,1.9,16.15-3.52,3.48-5.42,1.9-12.67-3.52-16.15-5.42-3.48-12.67-1.9-16.15,3.52-3.48,5.42-1.9,12.67,3.52,16.15Z" style="fill:#fff; stroke-width:0px;"/><path d="m1356.2,253.33c6.71,4.31,8.66,13.27,4.36,19.98-4.31,6.71-13.27,8.66-19.98,4.36-6.71-4.31-8.66-13.27-4.36-19.98,4.31-6.71,13.27-8.66,19.98-4.36Zm-14.13,22c5.42,3.48,12.67,1.9,16.15-3.52,3.48-5.42,1.9-12.67-3.52-16.15-5.42-3.48-12.67-1.9-16.15,3.52-3.48,5.42-1.9,12.67,3.52,16.15Z" style="fill:#fff; stroke-width:0px;"/><path d="m1402.63,411.6c1.56-2.43,4.8-3.14,7.23-1.58,2.43,1.56,3.14,4.8,1.58,7.23-1.56,2.43-4.8,3.14-7.23,1.58-2.43-1.56-3.14-4.8-1.58-7.23Z" style="fill:#fff; stroke-width:0px;"/><path d="m1203.56,431.86c1.56-2.43,4.8-3.14,7.23-1.58,2.43,1.56,3.14,4.8,1.58,7.23-1.56,2.43-4.8,3.14-7.23,1.58-2.43-1.56-3.14-4.8-1.58-7.23Z" style="fill:#fff; stroke-width:0px;"/><path d="m1126.1,319.63c1.56-2.43,4.8-3.14,7.23-1.58,2.43,1.56,3.14,4.8,1.58,7.23-1.56,2.43-4.8,3.14-7.23,1.58-2.43-1.56-3.14-4.8-1.58-7.23Z" style="fill:#fff; stroke-width:0px;"/><path d="m1168.45,390.37c1.1-1.71,3.37-2.2,5.08-1.11,1.71,1.1,2.21,3.37,1.11,5.08-1.1,1.71-3.37,2.21-5.08,1.11-1.71-1.1-2.21-3.37-1.11-5.08Z" style="fill:#fff; stroke-width:0px;"/><path d="m1435.08,328.62c1.1-1.71,3.37-2.2,5.08-1.11,1.71,1.1,2.2,3.37,1.11,5.08-1.1,1.71-3.37,2.2-5.08,1.11-1.71-1.1-2.21-3.37-1.11-5.08Z" style="fill:#fff; stroke-width:0px;"/><path d="m1374.03,403.82c1.1-1.71,3.37-2.21,5.08-1.11,1.71,1.1,2.21,3.37,1.11,5.08-1.1,1.71-3.37,2.21-5.08,1.11s-2.2-3.37-1.11-5.08Z" style="fill:#fff; stroke-width:0px;"/><polygon points="1383.38 445.49 1395.03 452.97 1297.9 604.28 1295.57 602.78 1391.2 453.8 1384.21 449.31 1310.51 564.12 1308.18 562.63 1383.38 445.49" style="fill:#fff; stroke-width:0px;"/><polygon points="1699.08 313.69 1699.67 316.4 1610.91 335.75 1645.22 493.08 1580.43 594 1578.1 592.51 1642.27 492.55 1607.62 333.64 1699.08 313.69" style="fill:#fff; stroke-width:0px;"/><polygon points="1793.87 313.06 1807.32 374.77 1804.62 375.36 1791.75 316.35 1641.86 349.04 1672.46 489.36 1598.04 605.3 1595.71 603.81 1669.51 488.83 1638.57 346.92 1793.87 313.06" style="fill:#fff; stroke-width:0px;"/><polygon points="1778.38 340.03 1800.1 439.65 1743.06 452.09 1742.48 449.38 1796.81 437.54 1776.26 343.33 1696.51 360.72 1717.28 455.99 1614.6 615.94 1612.28 614.44 1714.33 455.46 1693.21 358.61 1778.38 340.03" style="fill:#fff; stroke-width:0px;"/><polygon points="1774.53 457.53 1775.12 460.24 1739.55 467.99 1642.81 618.69 1640.48 617.2 1737.84 465.53 1774.53 457.53" style="fill:#fff; stroke-width:0px;"/><polygon points="1720.56 234.2 1728.57 270.91 1577.25 303.91 1617.68 489.29 1559.21 580.38 1556.88 578.88 1614.73 488.76 1573.96 301.79 1725.28 268.79 1718.45 237.5 1622.04 258.52 1621.45 255.82 1720.56 234.2" style="fill:#fff; stroke-width:0px;"/><polygon points="1542.79 311.26 1571.48 442.82 1505.36 545.81 1503.03 544.32 1568.53 442.29 1540.67 314.56 1515.32 320.08 1540.8 436.9 1538.09 437.49 1512.03 317.97 1542.79 311.26" style="fill:#fff; stroke-width:0px;"/><polygon points="1499.65 366.61 1517.1 446.66 1414.23 575.28 1411.9 573.79 1514.15 446.13 1496.94 367.2 1499.65 366.61" style="fill:#fff; stroke-width:0px;"/><polygon points="1482.02 383.81 1495.4 445.16 1402.84 557.73 1400.51 556.24 1492.45 444.63 1479.32 384.4 1482.02 383.81" style="fill:#fff; stroke-width:0px;"/><path d="m1484.54,353.88c6.71,4.31,8.66,13.27,4.36,19.98-4.31,6.71-13.27,8.66-19.98,4.36-6.71-4.31-8.66-13.27-4.36-19.98,4.31-6.71,13.27-8.66,19.98-4.36Zm-14.13,22c5.42,3.48,12.67,1.9,16.15-3.52,3.48-5.42,1.9-12.67-3.52-16.15s-12.67-1.9-16.15,3.52c-3.48,5.42-1.9,12.67,3.52,16.15Z" style="fill:#fff; stroke-width:0px;"/><path d="m1610.97,248.89c6.71,4.31,8.66,13.27,4.36,19.98-4.31,6.71-13.27,8.66-19.98,4.36-6.71-4.31-8.66-13.27-4.36-19.98,4.31-6.71,13.27-8.66,19.98-4.36Zm-14.13,22c5.42,3.48,12.67,1.9,16.15-3.52,3.48-5.42,1.9-12.67-3.52-16.15-5.42-3.48-12.67-1.9-16.15,3.52-3.48,5.42-1.9,12.67,3.52,16.15Z" style="fill:#fff; stroke-width:0px;"/><path d="m1493.89,364.08c1.56-2.43,4.8-3.14,7.23-1.58,2.43,1.56,3.14,4.8,1.58,7.23-1.56,2.43-4.8,3.14-7.23,1.58-2.43-1.56-3.14-4.8-1.58-7.23Z" style="fill:#fff; stroke-width:0px;"/><path d="m1536.25,434.82c1.1-1.71,3.37-2.21,5.08-1.11,1.71,1.1,2.21,3.37,1.11,5.08-1.1,1.71-3.37,2.21-5.08,1.11-1.71-1.1-2.21-3.37-1.11-5.08Z" style="fill:#fff; stroke-width:0px;"/><polygon points="1399.25 14.55 1401.96 13.99 1420.25 102.98 1577.98 70.56 1706.46 136.56 1833.82 136.56 1833.82 138.87 1704.94 138.87 1577.41 73.51 1418.1 106.25 1399.25 14.55" style="fill:#fff; stroke-width:0px;"/><polygon points="1399.76 -80.23 1461.63 -92.95 1462.18 -90.24 1403.03 -78.08 1433.91 72.19 1574.59 43.28 1717.98 119.09 1833.82 119.09 1833.82 121.41 1716.45 121.41 1574.03 46.22 1431.76 75.46 1399.76 -80.23" style="fill:#fff; stroke-width:0px;"/><polygon points="1426.55 -64.42 1526.42 -84.95 1538.17 -27.77 1535.46 -27.21 1524.26 -81.68 1429.82 -62.27 1446.25 17.69 1541.76 -1.94 1728.81 102.66 1833.82 102.66 1833.82 104.97 1727.29 104.97 1541.2 1.01 1444.09 20.96 1426.55 -64.42" style="fill:#fff; stroke-width:0px;"/><polygon points="1543.99 -59.16 1546.7 -59.72 1554.03 -24.06 1731.9 74.48 1833.82 74.48 1833.82 76.8 1730.38 76.8 1551.55 -22.38 1543.99 -59.16" style="fill:#fff; stroke-width:0px;"/><polygon points="1320.03 -7.89 1356.83 -15.45 1388.01 136.25 1573.86 98.06 1692.58 157.62 1833.82 157.62 1833.82 159.93 1691.06 159.93 1573.29 101 1385.85 139.52 1354.67 -12.18 1323.29 -5.73 1343.16 90.92 1340.45 91.48 1320.03 -7.89" style="fill:#fff; stroke-width:0px;"/><polygon points="1562.45 141.01 1563.97 138.7 1665.26 186.78 1833.82 186.78 1833.82 189.09 1663.74 189.09 1562.45 141.01" style="fill:#fff; stroke-width:0px;"/><polygon points="1394.94 170.8 1526.83 143.7 1657.37 211.05 1833.82 211.05 1833.82 213.36 1655.85 213.36 1526.27 146.64 1398.21 172.96 1403.44 198.37 1520.55 174.3 1521.1 177.01 1401.28 201.64 1394.94 170.8" style="fill:#fff; stroke-width:0px;"/><polygon points="1449.77 214.61 1530.02 198.12 1601.39 245.15 1599.87 247.46 1529.46 201.06 1450.33 217.32 1449.77 214.61" style="fill:#fff; stroke-width:0px;"/><polygon points="1466.76 232.43 1528.26 219.8 1583.71 256.34 1582.18 258.65 1527.69 222.74 1467.32 235.15 1466.76 232.43" style="fill:#fff; stroke-width:0px;"/><path d="m1436.86,229.56c4.39-6.66,13.37-8.5,20.03-4.12,6.66,4.39,8.5,13.37,4.12,20.03-4.39,6.66-13.37,8.5-20.03,4.12-6.66-4.39-8.5-13.37-4.12-20.03Zm21.83,14.39c3.55-5.38,2.05-12.65-3.33-16.19-5.38-3.55-12.65-2.05-16.19,3.33-3.55,5.38-2.05,12.65,3.33,16.19,5.38,3.55,12.65,2.05,16.19-3.33Z" style="fill:#fff; stroke-width:0px;"/><path d="m1333.4,101.87c4.39-6.66,13.37-8.5,20.03-4.12,6.66,4.39,8.5,13.37,4.12,20.03-4.39,6.66-13.37,8.5-20.03,4.12-6.66-4.39-8.5-13.37-4.12-20.03Zm21.83,14.39c3.55-5.38,2.05-12.65-3.33-16.19-5.38-3.55-12.65-2.05-16.19,3.33s-2.05,12.65,3.33,16.19c5.38,3.55,12.65,2.05,16.19-3.33Z" style="fill:#fff; stroke-width:0px;"/><path d="m1383.65-10.55c4.39-6.66,13.37-8.5,20.03-4.12,6.66,4.39,8.5,13.37,4.12,20.03-4.39,6.66-13.37,8.5-20.03,4.12-6.66-4.39-8.5-13.37-4.12-20.03Zm21.83,14.39c3.55-5.38,2.05-12.65-3.33-16.19-5.38-3.55-12.65-2.05-16.19,3.33-3.55,5.38-2.05,12.65,3.33,16.19,5.38,3.55,12.65,2.05,16.19-3.33Z" style="fill:#fff; stroke-width:0px;"/><path d="m1560.33,144.22c-2.41-1.59-3.08-4.83-1.49-7.24,1.59-2.41,4.83-3.08,7.24-1.49,2.41,1.59,3.08,4.83,1.49,7.24-1.59,2.41-4.83,3.08-7.24,1.49Z" style="fill:#fff; stroke-width:0px;"/><path d="m1447.17,220.33c-2.41-1.59-3.08-4.83-1.49-7.24,1.59-2.41,4.83-3.08,7.24-1.49,2.41,1.59,3.08,4.83,1.49,7.24-1.59,2.41-4.83,3.08-7.24,1.49Z" style="fill:#fff; stroke-width:0px;"/><path d="m1518.42,178.83c-1.7-1.12-2.16-3.4-1.05-5.09,1.12-1.7,3.4-2.16,5.09-1.05,1.7,1.12,2.16,3.4,1.05,5.09-1.12,1.7-3.4,2.16-5.09,1.05Z" style="fill:#fff; stroke-width:0px;"/><polygon points="1576.12 -35.42 1583.74 -46.98 1762.22 51.97 1833.82 51.97 1833.82 54.28 1760.69 54.28 1584.53 -43.14 1579.96 -36.21 1693.87 27.53 1692.35 29.84 1576.12 -35.42" style="fill:#fff; stroke-width:0px;"/><path d="m1690.57,31.42c-1.7-1.12-2.16-3.4-1.05-5.09s3.4-2.16,5.09-1.05c1.7,1.12,2.16,3.4,1.05,5.09-1.12,1.7-3.4,2.16-5.09,1.05Z" style="fill:#fff; stroke-width:0px;"/></g></g></svg>