<?xml version="1.0" encoding="UTF-8"?><svg id="_Слой_2" xmlns="http://www.w3.org/2000/svg" width="821.32" height="467.72" xmlns:xlink="http://www.w3.org/1999/xlink" viewBox="0 0 821.32 467.72"><defs><clipPath id="clippath"><rect x="176.8" y="-176.8" width="467.72" height="821.32" transform="translate(644.52 -176.8) rotate(90)" style="fill:none; stroke-width:0px;"/></clipPath></defs><g id="_Слой_1-2"><g style="clip-path:url(#clippath);"><polygon points="460.72 267.34 461.31 270.04 372.55 289.4 406.86 446.73 313.73 576 311.4 574.5 403.91 446.2 369.26 287.29 460.72 267.34" style="fill:#fff; stroke-width:0px;"/><polygon points="555.5 266.71 568.96 328.42 566.26 329.01 553.39 270 403.5 302.69 434.1 443.01 359.67 558.95 357.35 557.46 431.15 442.48 400.2 300.57 555.5 266.71" style="fill:#fff; stroke-width:0px;"/><polygon points="540.01 293.68 561.74 393.3 504.7 405.74 504.11 403.03 558.44 391.19 537.9 296.98 458.14 314.37 478.92 409.64 376.24 569.59 373.91 568.09 475.97 409.11 454.85 312.26 540.01 293.68" style="fill:#fff; stroke-width:0px;"/><polygon points="536.17 411.18 536.76 413.89 501.19 421.64 404.45 572.34 402.12 570.85 499.48 419.18 536.17 411.18" style="fill:#fff; stroke-width:0px;"/><polygon points="482.2 187.85 490.21 224.56 338.89 257.56 379.32 442.94 292.5 562.37 290.17 560.88 376.37 442.41 335.59 255.44 486.91 222.44 480.09 191.14 383.68 212.17 383.09 209.46 482.2 187.85" style="fill:#fff; stroke-width:0px;"/><polygon points="336.23 432.04 338.56 433.54 234.67 563.75 232.34 562.26 336.23 432.04" style="fill:#fff; stroke-width:0px;"/><polygon points="304.43 264.91 333.12 396.47 210.31 556.15 207.98 554.66 330.17 395.93 302.31 268.21 276.96 273.73 302.44 390.55 299.73 391.14 273.67 271.62 304.43 264.91" style="fill:#fff; stroke-width:0px;"/><polygon points="261.28 320.26 278.74 400.31 147.53 557.28 145.2 555.78 275.79 399.78 258.58 320.85 261.28 320.26" style="fill:#fff; stroke-width:0px;"/><polygon points="243.66 337.46 257.04 398.81 136.13 539.73 133.8 538.23 254.09 398.28 240.96 338.05 243.66 337.46" style="fill:#fff; stroke-width:0px;"/><path d="m246.18,307.53c6.71,4.31,8.66,13.27,4.36,19.98-4.31,6.71-13.27,8.66-19.98,4.36-6.71-4.31-8.66-13.27-4.36-19.98,4.31-6.71,13.27-8.66,19.98-4.36Zm-14.13,22c5.42,3.48,12.67,1.9,16.15-3.52,3.48-5.42,1.9-12.67-3.52-16.15-5.42-3.48-12.67-1.9-16.15,3.52-3.48,5.42-1.9,12.67,3.52,16.15Z" style="fill:#fff; stroke-width:0px;"/><path d="m372.61,202.54c6.71,4.31,8.66,13.27,4.36,19.98-4.31,6.71-13.27,8.66-19.98,4.36-6.71-4.31-8.66-13.27-4.36-19.98,4.31-6.71,13.27-8.66,19.98-4.36Zm-14.13,22c5.42,3.48,12.67,1.9,16.15-3.52,3.48-5.42,1.9-12.67-3.52-16.15-5.42-3.48-12.67-1.9-16.15,3.52-3.48,5.42-1.9,12.67,3.52,16.15Z" style="fill:#fff; stroke-width:0px;"/><path d="m485.63,251.44c6.71,4.31,8.66,13.27,4.36,19.98-4.31,6.71-13.27,8.66-19.98,4.36-6.71-4.31-8.66-13.27-4.36-19.98,4.31-6.71,13.27-8.66,19.98-4.36Zm-14.13,22c5.42,3.48,12.67,1.9,16.15-3.52,3.48-5.42,1.9-12.67-3.52-16.15-5.42-3.48-12.67-1.9-16.15,3.52-3.48,5.42-1.9,12.67,3.52,16.15Z" style="fill:#fff; stroke-width:0px;"/><path d="m532.06,409.71c1.56-2.43,4.8-3.14,7.23-1.58,2.43,1.56,3.14,4.8,1.58,7.23-1.56,2.43-4.8,3.14-7.23,1.58-2.43-1.56-3.14-4.8-1.58-7.23Z" style="fill:#fff; stroke-width:0px;"/><path d="m332.99,429.97c1.56-2.43,4.8-3.14,7.23-1.58,2.43,1.56,3.14,4.8,1.58,7.23-1.56,2.43-4.8,3.14-7.23,1.58-2.43-1.56-3.14-4.8-1.58-7.23Z" style="fill:#fff; stroke-width:0px;"/><path d="m255.53,317.73c1.56-2.43,4.8-3.14,7.23-1.58,2.43,1.56,3.14,4.8,1.58,7.23-1.56,2.43-4.8,3.14-7.23,1.58-2.43-1.56-3.14-4.8-1.58-7.23Z" style="fill:#fff; stroke-width:0px;"/><path d="m297.89,388.47c1.1-1.71,3.37-2.2,5.08-1.11,1.71,1.1,2.21,3.37,1.11,5.08-1.1,1.71-3.37,2.21-5.08,1.11-1.71-1.1-2.21-3.37-1.11-5.08Z" style="fill:#fff; stroke-width:0px;"/><path d="m564.51,326.73c1.1-1.71,3.37-2.2,5.08-1.11,1.71,1.1,2.2,3.37,1.11,5.08-1.1,1.71-3.37,2.2-5.08,1.11-1.71-1.1-2.21-3.37-1.11-5.08Z" style="fill:#fff; stroke-width:0px;"/><path d="m503.46,401.93c1.1-1.71,3.37-2.21,5.08-1.11,1.71,1.1,2.21,3.37,1.11,5.08-1.1,1.71-3.37,2.21-5.08,1.11s-2.2-3.37-1.11-5.08Z" style="fill:#fff; stroke-width:0px;"/><polygon points="512.81 443.59 524.46 451.07 427.33 602.38 425 600.89 520.64 451.91 513.65 447.42 439.95 562.23 437.62 560.73 512.81 443.59" style="fill:#fff; stroke-width:0px;"/><polygon points="828.51 311.8 829.1 314.5 740.35 333.86 774.65 491.19 709.87 592.11 707.54 590.62 771.71 490.66 737.05 331.74 828.51 311.8" style="fill:#fff; stroke-width:0px;"/><polygon points="923.3 311.17 936.76 372.88 934.05 373.47 921.18 314.46 771.3 347.15 801.9 487.47 727.47 603.41 725.14 601.92 798.95 486.94 768 345.03 923.3 311.17" style="fill:#fff; stroke-width:0px;"/><polygon points="907.81 338.14 929.53 437.76 872.5 450.2 871.91 447.49 926.24 435.64 905.69 341.44 825.94 358.83 846.72 454.1 744.04 614.05 741.71 612.55 843.77 453.57 822.64 356.71 907.81 338.14" style="fill:#fff; stroke-width:0px;"/><polygon points="903.96 455.64 904.55 458.35 868.99 466.1 772.25 616.8 769.92 615.31 867.27 463.64 903.96 455.64" style="fill:#fff; stroke-width:0px;"/><polygon points="850 232.31 858 269.02 706.69 302.02 747.11 487.4 688.64 578.49 686.31 576.99 744.16 486.87 703.39 299.9 854.71 266.9 847.88 235.6 751.47 256.63 750.88 253.92 850 232.31" style="fill:#fff; stroke-width:0px;"/><polygon points="672.22 309.37 700.91 440.92 634.79 543.92 632.46 542.42 697.96 440.39 670.11 312.66 644.76 318.19 670.23 435 667.53 435.59 641.46 316.08 672.22 309.37" style="fill:#fff; stroke-width:0px;"/><polygon points="629.08 364.72 646.54 444.77 543.67 573.39 541.34 571.9 643.59 444.24 626.38 365.31 629.08 364.72" style="fill:#fff; stroke-width:0px;"/><polygon points="611.46 381.92 624.84 443.27 532.27 555.84 529.94 554.34 621.89 442.73 608.75 382.51 611.46 381.92" style="fill:#fff; stroke-width:0px;"/><path d="m613.98,351.99c6.71,4.31,8.66,13.27,4.36,19.98-4.31,6.71-13.27,8.66-19.98,4.36-6.71-4.31-8.66-13.27-4.36-19.98,4.31-6.71,13.27-8.66,19.98-4.36Zm-14.13,22c5.42,3.48,12.67,1.9,16.15-3.52,3.48-5.42,1.9-12.67-3.52-16.15s-12.67-1.9-16.15,3.52c-3.48,5.42-1.9,12.67,3.52,16.15Z" style="fill:#fff; stroke-width:0px;"/><path d="m740.41,247c6.71,4.31,8.66,13.27,4.36,19.98-4.31,6.71-13.27,8.66-19.98,4.36-6.71-4.31-8.66-13.27-4.36-19.98,4.31-6.71,13.27-8.66,19.98-4.36Zm-14.13,22c5.42,3.48,12.67,1.9,16.15-3.52,3.48-5.42,1.9-12.67-3.52-16.15-5.42-3.48-12.67-1.9-16.15,3.52-3.48,5.42-1.9,12.67,3.52,16.15Z" style="fill:#fff; stroke-width:0px;"/><path d="m623.33,362.19c1.56-2.43,4.8-3.14,7.23-1.58,2.43,1.56,3.14,4.8,1.58,7.23-1.56,2.43-4.8,3.14-7.23,1.58-2.43-1.56-3.14-4.8-1.58-7.23Z" style="fill:#fff; stroke-width:0px;"/><path d="m665.68,432.93c1.1-1.71,3.37-2.21,5.08-1.11,1.71,1.1,2.21,3.37,1.11,5.08-1.1,1.71-3.37,2.21-5.08,1.11-1.71-1.1-2.21-3.37-1.11-5.08Z" style="fill:#fff; stroke-width:0px;"/><polygon points="528.69 12.66 531.4 12.1 549.68 101.09 707.41 68.67 835.9 134.67 963.25 134.67 963.25 136.98 834.37 136.98 706.85 71.61 547.53 104.35 528.69 12.66" style="fill:#fff; stroke-width:0px;"/><polygon points="529.19 -82.13 591.06 -94.84 591.62 -92.13 532.46 -79.97 563.34 70.3 704.03 41.39 847.41 117.2 963.25 117.2 963.25 119.51 845.89 119.51 703.46 44.33 561.19 73.57 529.19 -82.13" style="fill:#fff; stroke-width:0px;"/><polygon points="555.98 -66.31 655.85 -86.84 667.6 -29.66 664.89 -29.1 653.7 -83.57 559.25 -64.16 575.68 15.8 671.2 -3.83 858.24 100.76 963.25 100.76 963.25 103.08 856.72 103.08 670.63 -.89 573.53 19.07 555.98 -66.31" style="fill:#fff; stroke-width:0px;"/><polygon points="673.43 -61.06 676.14 -61.61 683.47 -25.95 861.34 72.59 963.25 72.59 963.25 74.9 859.81 74.9 680.98 -24.27 673.43 -61.06" style="fill:#fff; stroke-width:0px;"/><polygon points="449.46 -9.78 486.26 -17.34 517.44 134.36 703.29 96.17 822.02 155.73 963.25 155.73 963.25 158.04 820.49 158.04 702.73 99.11 515.28 137.63 484.11 -14.08 452.73 -7.63 472.59 89.03 469.88 89.59 449.46 -9.78" style="fill:#fff; stroke-width:0px;"/><polygon points="691.88 139.12 693.41 136.81 794.7 184.88 963.25 184.88 963.25 187.2 793.17 187.2 691.88 139.12" style="fill:#fff; stroke-width:0px;"/><polygon points="524.38 168.91 656.27 141.81 786.81 209.16 963.25 209.16 963.25 211.47 785.28 211.47 655.7 144.75 527.65 171.06 532.87 196.48 649.98 172.41 650.54 175.12 530.71 199.75 524.38 168.91" style="fill:#fff; stroke-width:0px;"/><polygon points="579.21 212.71 659.46 196.22 730.83 243.26 729.3 245.57 658.89 199.17 579.76 215.43 579.21 212.71" style="fill:#fff; stroke-width:0px;"/><polygon points="596.19 230.54 657.69 217.9 713.14 254.44 711.62 256.76 657.13 220.85 596.75 233.25 596.19 230.54" style="fill:#fff; stroke-width:0px;"/><path d="m566.29,227.66c4.39-6.66,13.37-8.5,20.03-4.12,6.66,4.39,8.5,13.37,4.12,20.03-4.39,6.66-13.37,8.5-20.03,4.12-6.66-4.39-8.5-13.37-4.12-20.03Zm21.83,14.39c3.55-5.38,2.05-12.65-3.33-16.19-5.38-3.55-12.65-2.05-16.19,3.33-3.55,5.38-2.05,12.65,3.33,16.19,5.38,3.55,12.65,2.05,16.19-3.33Z" style="fill:#fff; stroke-width:0px;"/><path d="m462.83,99.98c4.39-6.66,13.37-8.5,20.03-4.12,6.66,4.39,8.5,13.37,4.12,20.03-4.39,6.66-13.37,8.5-20.03,4.12-6.66-4.39-8.5-13.37-4.12-20.03Zm21.83,14.39c3.55-5.38,2.05-12.65-3.33-16.19-5.38-3.55-12.65-2.05-16.19,3.33s-2.05,12.65,3.33,16.19c5.38,3.55,12.65,2.05,16.19-3.33Z" style="fill:#fff; stroke-width:0px;"/><path d="m513.08-12.44c4.39-6.66,13.37-8.5,20.03-4.12,6.66,4.39,8.5,13.37,4.12,20.03-4.39,6.66-13.37,8.5-20.03,4.12-6.66-4.39-8.5-13.37-4.12-20.03Zm21.83,14.39c3.55-5.38,2.05-12.65-3.33-16.19-5.38-3.55-12.65-2.05-16.19,3.33-3.55,5.38-2.05,12.65,3.33,16.19,5.38,3.55,12.65,2.05,16.19-3.33Z" style="fill:#fff; stroke-width:0px;"/><path d="m689.77,142.33c-2.41-1.59-3.08-4.83-1.49-7.24,1.59-2.41,4.83-3.08,7.24-1.49,2.41,1.59,3.08,4.83,1.49,7.24-1.59,2.41-4.83,3.08-7.24,1.49Z" style="fill:#fff; stroke-width:0px;"/><path d="m576.61,218.44c-2.41-1.59-3.08-4.83-1.49-7.24,1.59-2.41,4.83-3.08,7.24-1.49,2.41,1.59,3.08,4.83,1.49,7.24-1.59,2.41-4.83,3.08-7.24,1.49Z" style="fill:#fff; stroke-width:0px;"/><path d="m647.85,176.94c-1.7-1.12-2.16-3.4-1.05-5.09,1.12-1.7,3.4-2.16,5.09-1.05,1.7,1.12,2.16,3.4,1.05,5.09-1.12,1.7-3.4,2.16-5.09,1.05Z" style="fill:#fff; stroke-width:0px;"/><polygon points="705.55 -37.31 713.17 -48.87 891.65 50.07 963.25 50.07 963.25 52.39 890.13 52.39 713.96 -45.04 709.39 -38.1 823.31 25.64 821.78 27.95 705.55 -37.31" style="fill:#fff; stroke-width:0px;"/><path d="m820.01,29.52c-1.7-1.12-2.16-3.4-1.05-5.09s3.4-2.16,5.09-1.05c1.7,1.12,2.16,3.4,1.05,5.09-1.12,1.7-3.4,2.16-5.09,1.05Z" style="fill:#fff; stroke-width:0px;"/></g></g></svg>